<svg width="75" height="38" viewBox="0 0 75 38" fill="none" xmlns="http://www.w3.org/2000/svg">
<path fill-rule="evenodd" clip-rule="evenodd" d="M54.7058 22.91L15.4784 22.9103C5.86214 22.9103 3.90339 20.5842 3.82469 20.4851L4.40306 19.9698C4.42145 19.9915 6.34484 22.1145 15.4784 22.1145H54.7058V17.5348C52.4516 17.6256 50.7767 17.655 50.7347 17.6556H14.8135V17.6571C13.3966 17.6524 9.41492 17.5907 5.4761 17.0869C3.27107 16.8096 1.22286 16.6538 0.378598 17.7804C-0.124305 18.4513 -0.126181 19.4581 0.372901 20.8573C0.382228 20.8831 0.394987 20.9071 0.411116 20.9287L0.434174 20.9594C3.34977 24.868 9.29347 25.5328 12.9898 25.5328C13.6901 25.5328 14.3104 25.5088 14.8135 25.4785H54.7058V22.91Z" fill="#519E8A"/>
<path fill-rule="evenodd" clip-rule="evenodd" d="M70.6555 20.8008C70.6555 20.8008 66.7617 20.8403 65.9695 20.8008C65.175 20.7582 63.7376 19.3333 62.4911 17.7863C61.2447 16.2398 59.9968 16.4039 59.9968 16.4039C59.9968 16.4039 55.6534 16.4039 54.6701 16.4039C53.6862 16.4039 53.7997 15.4886 53.7997 15.4886V9.10732C53.7997 8.31814 54.4422 8.35544 54.4422 8.35544C54.4422 8.35544 63.3416 8.11792 65.7584 8.35544C68.1755 8.59289 70.6329 14.1432 71.276 16.8348C71.917 19.5307 70.886 20.5897 70.6555 20.8008ZM56.9728 21.7106H54.4068V20.8163H56.9728V21.7106ZM73.9793 29.199C73.914 24.7917 74.6358 17.6206 72.4466 16.4401C72.4466 16.4401 69.6129 8.06065 65.7584 6.75003H50.874V25.4772H59.1442C64.3717 25.4772 69.7177 25.6896 70.0672 32.2911H74.7192C74.7192 32.2911 74.9647 32.2725 75.0002 31.6583V29.199H73.9793Z" fill="#519E8A"/>
<path fill-rule="evenodd" clip-rule="evenodd" d="M52.3762 4.56116C51.6783 4.81634 50.8805 5.10576 49.9903 5.10576V3.87056H51.7177V2.22351H49.9903V1.56457H54.3087C54.3087 3.84386 54.4827 3.6575 53.8734 3.90799L52.3762 4.56116ZM7.40137 17.8651H49.9903V5.92939C51.295 5.92939 55.0154 4.54152 55.0154 4.03524V0.741145H49.9903V0H7.40137V17.8651Z" fill="#519E8A"/>
<path fill-rule="evenodd" clip-rule="evenodd" d="M12.9756 36.5753V35.0836H9.03216V28.5293H7.37305V36.5753H12.9756Z" fill="#519E8A"/>
<path fill-rule="evenodd" clip-rule="evenodd" d="M26.6041 36.5746L27.4121 34.7891H31.3016L32.0559 36.5746H33.6935L30.2566 28.5058H28.5543L25.0635 36.5746H26.6041ZM29.4378 30.0239L30.6874 33.1505H28.1341L29.4269 30.0239H29.4378Z" fill="#519E8A"/>
<path fill-rule="evenodd" clip-rule="evenodd" d="M34.2866 36.5746H37.6051C39.9539 36.5746 41.096 34.8343 41.096 32.4949C41.096 29.828 39.5983 28.5058 37.6051 28.5058H34.2866V36.5746ZM35.9782 29.9975H37.1849C38.8548 29.9975 39.4044 31.0372 39.4044 32.6645C39.4044 34.4499 38.467 35.0829 37.4866 35.0829H35.9782V29.9975Z" fill="#519E8A"/>
<path fill-rule="evenodd" clip-rule="evenodd" d="M41.5972 33.7081C41.5972 35.6932 43.1486 36.5748 44.8725 36.5748C46.9733 36.5748 48.0725 35.4671 48.0725 33.9887C48.0725 32.1617 46.3592 31.7908 45.7882 31.6437C43.8596 31.1577 43.4933 31.0221 43.4933 30.4251C43.4933 29.747 44.1182 29.5117 44.657 29.5117C45.1849 29.5117 45.9715 29.5455 46.1762 30.4816L47.8138 30.7302C47.8138 28.8676 46.3378 28.133 44.7323 28.133C43.3425 28.133 41.8556 28.9127 41.8556 30.572C41.8556 33.5836 46.4348 32.478 46.4348 34.192C46.4348 35.017 45.5298 35.196 44.9371 35.196C44.3121 35.196 43.4073 35.0509 43.2348 33.9887L41.5972 33.7081Z" fill="#519E8A"/>
<path fill-rule="evenodd" clip-rule="evenodd" d="M24.2623 31.8655C24.2623 28.686 21.7929 26.127 18.7913 26.127C15.7748 26.127 13.335 28.686 13.335 31.8655C13.335 34.5419 15.0809 36.7852 17.4449 37.4131H14.5896V37.9995H23.0078V37.4131H20.1337C22.4952 36.7852 24.2623 34.5419 24.2623 31.8655ZM17.3572 31.8614C17.3572 32.6778 18.0046 33.3569 18.783 33.3569C19.5613 33.3569 20.1957 32.6778 20.1957 31.8614C20.1957 31.0451 19.5613 30.3591 18.783 30.3591C18.0046 30.3591 17.3572 31.0451 17.3572 31.8614ZM18.7913 28.4693C20.5509 28.4693 21.9851 30.0202 21.9851 31.8658C21.9851 33.7114 20.5509 35.2468 18.7913 35.2468C17.0316 35.2468 15.5677 33.7114 15.5677 31.8658C15.5677 30.0202 17.0316 28.4693 18.7913 28.4693Z" fill="#514F4F"/>
<path fill-rule="evenodd" clip-rule="evenodd" d="M60.3345 31.8652C60.3345 28.6859 57.8654 26.127 54.8637 26.127C51.8475 26.127 49.4077 28.6859 49.4077 31.8652C49.4077 34.5416 51.1539 36.785 53.518 37.4126H50.6623V37.999H59.0805V37.4126H56.2055C58.5673 36.785 60.3345 34.5416 60.3345 31.8652ZM53.4522 31.8604C53.4522 32.6768 54.0997 33.3559 54.878 33.3559C55.6564 33.3559 56.2908 32.6768 56.2908 31.8604C56.2908 31.0441 55.6564 30.3581 54.878 30.3581C54.0997 30.3581 53.4522 31.0441 53.4522 31.8604ZM54.8637 28.4686C56.6232 28.4686 58.0575 30.0196 58.0575 31.8651C58.0575 33.7105 56.6232 35.2457 54.8637 35.2457C53.1042 35.2457 51.6403 33.7105 51.6403 31.8651C51.6403 30.0196 53.1042 28.4686 54.8637 28.4686Z" fill="#514F4F"/>
<path fill-rule="evenodd" clip-rule="evenodd" d="M61.9087 36.796V28.7266H65.2388C65.9276 28.7266 66.5211 28.8438 67.0193 29.0781C67.5176 29.3126 67.9023 29.6488 68.1733 30.0868C68.4445 30.5249 68.58 31.0475 68.58 31.6547C68.58 32.2541 68.4445 32.7709 68.1733 33.2051C67.9023 33.6393 67.5176 33.9717 67.0193 34.2023C66.3484 34.4549 65.8791 34.5546 65.2388 34.5481H63.6891V33.7297V36.796H61.9087ZM66.7995 36.796L65.2388 34.5481L65.4876 34.5449L65.738 34.5273L65.99 34.4955L66.237 34.4468L66.582 34.3535L67.0193 34.2023L68.7229 36.796H66.7995ZM63.6891 33.9372V33.061H65.1399C65.6895 33.061 66.0998 32.9361 66.3709 32.6864C66.642 32.4366 66.7775 32.0927 66.7775 31.6547C66.7775 31.2089 66.642 30.863 66.3709 30.6172C66.0998 30.3712 65.6895 30.2483 65.1399 30.2483H62.8979H63.6891V33.9372Z" fill="#519E8A"/>
</svg>
