<svg width="21" height="21" viewBox="0 0 21 21" fill="none" xmlns="http://www.w3.org/2000/svg">
<g clip-path="url(#clip0_559_2267)">
<path d="M11.913 2.23182C12.1444 2.23113 12.3699 2.3051 12.556 2.44275C12.742 2.58039 12.8787 2.77437 12.9458 2.99588L15.8364 12.5443L17.42 14.1279L13.9044 17.4873L11.5653 15.1482C11.0986 14.6797 10.8365 14.0454 10.8364 13.3842V3.30603C10.837 3.02092 10.9507 2.74769 11.1526 2.5463C11.3544 2.34492 11.6279 2.23182 11.913 2.23182Z" stroke="black" stroke-linecap="round" stroke-linejoin="round"/>
<path d="M13.9075 17.4905L15.3411 18.924C15.4583 19.0412 15.6172 19.107 15.7829 19.107C15.9486 19.107 16.1075 19.0412 16.2247 18.924L18.7786 16.3725C18.8957 16.2553 18.9615 16.0964 18.9615 15.9307C18.9615 15.765 18.8957 15.6061 18.7786 15.4889L17.345 14.0553" stroke="black" stroke-linecap="round" stroke-linejoin="round"/>
<path d="M10.1044 15.1513L7.76538 17.4904L4.32788 14.0529L5.83647 12.5443L8.7271 2.99588C8.79416 2.77437 8.93087 2.58039 9.11693 2.44275C9.30299 2.3051 9.52847 2.23113 9.75991 2.23182C10.0454 2.23182 10.3193 2.34524 10.5212 2.54713C10.7231 2.74903 10.8365 3.02286 10.8365 3.30838V13.3865C10.8358 14.0485 10.5725 14.6832 10.1044 15.1513Z" stroke="black" stroke-linecap="round" stroke-linejoin="round"/>
<path d="M4.32793 14.0529L2.89434 15.4865C2.77722 15.6036 2.71143 15.7626 2.71143 15.9282C2.71143 16.0939 2.77722 16.2528 2.89434 16.37L5.4459 18.924C5.5631 19.0411 5.72201 19.1069 5.8877 19.1069C6.05339 19.1069 6.2123 19.0411 6.3295 18.924L7.76309 17.4904" stroke="black" stroke-linecap="round" stroke-linejoin="round"/>
</g>
<defs>
<clipPath id="clip0_559_2267">
<rect width="20" height="20" fill="white" transform="translate(0.836426 0.981812)"/>
</clipPath>
</defs>
</svg>
