<svg width="21" height="21" viewBox="0 0 21 21" fill="none" xmlns="http://www.w3.org/2000/svg">
<g clip-path="url(#clip0_559_2307)">
<path d="M5.09111 15.9816C4.37236 15.2629 4.84893 13.7527 4.4833 12.8684C4.10361 11.9551 2.71143 11.2129 2.71143 10.2363C2.71143 9.25977 4.10361 8.51758 4.4833 7.6043C4.84893 6.7207 4.37236 5.20977 5.09111 4.49102C5.80986 3.77227 7.3208 4.24883 8.20439 3.8832C9.12158 3.50352 9.85986 2.11133 10.8364 2.11133C11.813 2.11133 12.5552 3.50352 13.4685 3.8832C14.3528 4.24883 15.863 3.77227 16.5817 4.49102C17.3005 5.20977 16.8239 6.71992 17.1896 7.6043C17.5692 8.52148 18.9614 9.25977 18.9614 10.2363C18.9614 11.2129 17.5692 11.9551 17.1896 12.8684C16.8239 13.7527 17.3005 15.2629 16.5817 15.9816C15.863 16.7004 14.3528 16.2238 13.4685 16.5895C12.5552 16.9691 11.813 18.3613 10.8364 18.3613C9.85986 18.3613 9.11768 16.9691 8.20439 16.5895C7.3208 16.2238 5.80986 16.7004 5.09111 15.9816Z" stroke="black" stroke-linecap="round" stroke-linejoin="round"/>
<path d="M7.71143 10.8613L9.58643 12.7363L13.9614 8.36133" stroke="black" stroke-linecap="round" stroke-linejoin="round"/>
</g>
<defs>
<clipPath id="clip0_559_2307">
<rect width="20" height="20" fill="white" transform="translate(0.836426 0.236328)"/>
</clipPath>
</defs>
</svg>
