<svg width="21" height="21" viewBox="0 0 21 21" fill="none" xmlns="http://www.w3.org/2000/svg">
<g clip-path="url(#clip0_559_2274)">
<path d="M8.11533 9.95986C7.84666 9.29133 7.70951 8.57723 7.71143 7.85674C7.71143 4.84267 10.1396 2.33799 13.1521 2.24189C13.9216 2.21624 14.6882 2.34886 15.4045 2.63153C16.1207 2.9142 16.7712 3.34091 17.3159 3.88522C17.8605 4.42954 18.2875 5.07987 18.5706 5.79594C18.8536 6.51201 18.9867 7.27857 18.9614 8.04814C18.8622 11.0606 16.3575 13.4888 13.3435 13.4888C12.623 13.4907 11.9089 13.3535 11.2403 13.0849L10.2114 14.1138H8.33643V15.9888H6.46143V17.8638H3.96143C3.79567 17.8638 3.63669 17.7979 3.51948 17.6807C3.40227 17.5635 3.33643 17.4045 3.33643 17.2388V14.9974C3.3365 14.8318 3.40225 14.6731 3.51924 14.556L8.11533 9.95986Z" stroke="black" stroke-linecap="round" stroke-linejoin="round"/>
<path d="M14.8989 7.23877C15.4167 7.23877 15.8364 6.81904 15.8364 6.30127C15.8364 5.7835 15.4167 5.36377 14.8989 5.36377C14.3812 5.36377 13.9614 5.7835 13.9614 6.30127C13.9614 6.81904 14.3812 7.23877 14.8989 7.23877Z" fill="black"/>
</g>
<defs>
<clipPath id="clip0_559_2274">
<rect width="20" height="20" fill="white" transform="translate(0.836426 0.36377)"/>
</clipPath>
</defs>
</svg>
