<svg width="21" height="21" viewBox="0 0 21 21" fill="none" xmlns="http://www.w3.org/2000/svg">
<g clip-path="url(#clip0_559_2326)">
<path d="M10.8364 10.7034V18.7409" stroke="black" stroke-linecap="round" stroke-linejoin="round"/>
<path d="M3.39111 6.62744L10.8364 10.7024L18.2817 6.62744" stroke="black" stroke-linecap="round" stroke-linejoin="round"/>
<path d="M18.0114 14.9026L11.1364 18.6666C11.0444 18.717 10.9413 18.7434 10.8364 18.7434C10.7316 18.7434 10.6284 18.717 10.5364 18.6666L3.66143 14.9026C3.56326 14.8489 3.48131 14.7698 3.42414 14.6736C3.36697 14.5774 3.33668 14.4676 3.33643 14.3557V6.88227C3.33668 6.77037 3.36697 6.66059 3.42414 6.56439C3.48131 6.46819 3.56326 6.38911 3.66143 6.3354L10.5364 2.57134C10.6284 2.52101 10.7316 2.49463 10.8364 2.49463C10.9413 2.49463 11.0444 2.52101 11.1364 2.57134L18.0114 6.3354C18.1096 6.38911 18.1915 6.46819 18.2487 6.56439C18.3059 6.66059 18.3362 6.77037 18.3364 6.88227V14.3541C18.3365 14.4663 18.3063 14.5764 18.2491 14.6729C18.1919 14.7694 18.1098 14.8487 18.0114 14.9026Z" stroke="black" stroke-linecap="round" stroke-linejoin="round"/>
<path d="M7.20825 4.39233L14.5864 8.43062V12.4931" stroke="black" stroke-linecap="round" stroke-linejoin="round"/>
</g>
<defs>
<clipPath id="clip0_559_2326">
<rect width="20" height="20" fill="white" transform="translate(0.836426 0.618164)"/>
</clipPath>
</defs>
</svg>
