<svg width="25" height="25" viewBox="0 0 25 25" fill="none" xmlns="http://www.w3.org/2000/svg">
<mask id="mask0_546_22832" style="mask-type:alpha" maskUnits="userSpaceOnUse" x="0" y="0" width="25" height="25">
<rect x="0.836426" y="0.936279" width="24" height="24" fill="#D9D9D9"/>
</mask>
<g mask="url(#mask0_546_22832)">
<path d="M4.83643 17.7248V19.6285C4.83643 19.7055 4.86851 19.776 4.93268 19.84C4.99668 19.9042 5.06718 19.9363 5.14418 19.9363H20.5287C20.6057 19.9363 20.6762 19.9042 20.7402 19.84C20.8043 19.776 20.8364 19.7055 20.8364 19.6285V17.7248H4.83643ZM8.33643 7.43629V5.62854C8.33643 5.12354 8.51143 4.69604 8.86143 4.34604C9.21143 3.99604 9.63901 3.82104 10.1442 3.82104H15.5287C16.0338 3.82104 16.4614 3.99604 16.8114 4.34604C17.1614 4.69604 17.3364 5.12354 17.3364 5.62854V7.43629H20.5287C21.0338 7.43629 21.4614 7.61129 21.8114 7.96129C22.1614 8.31129 22.3364 8.73888 22.3364 9.24404V19.6285C22.3364 20.1337 22.1614 20.5613 21.8114 20.9113C21.4614 21.2613 21.0338 21.4363 20.5287 21.4363H5.14418C4.63901 21.4363 4.21143 21.2613 3.86143 20.9113C3.51143 20.5613 3.33643 20.1337 3.33643 19.6285V9.24404C3.33643 8.73888 3.51143 8.31129 3.86143 7.96129C4.21143 7.61129 4.63901 7.43629 5.14418 7.43629H8.33643ZM4.83643 15.1478H20.8364V9.24404C20.8364 9.16704 20.8043 9.09654 20.7402 9.03254C20.6762 8.96838 20.6057 8.93629 20.5287 8.93629H17.3364V9.99404C17.3364 10.2069 17.2646 10.385 17.1209 10.5285C16.9774 10.6722 16.7993 10.744 16.5864 10.744C16.3736 10.744 16.1954 10.6722 16.0519 10.5285C15.9083 10.385 15.8364 10.2069 15.8364 9.99404V8.93629H9.83643V9.99404C9.83643 10.2069 9.76459 10.385 9.62093 10.5285C9.47743 10.6722 9.29926 10.744 9.08643 10.744C8.87359 10.744 8.69543 10.6722 8.55193 10.5285C8.40826 10.385 8.33643 10.2069 8.33643 9.99404V8.93629H5.14418C5.06718 8.93629 4.99668 8.96838 4.93268 9.03254C4.86851 9.09654 4.83643 9.16704 4.83643 9.24404V15.1478ZM9.83643 7.43629H15.8364V5.62854C15.8364 5.55171 15.8043 5.48121 15.7402 5.41704C15.6762 5.35304 15.6057 5.32104 15.5287 5.32104H10.1442C10.0672 5.32104 9.99668 5.35304 9.93268 5.41704C9.86851 5.48121 9.83643 5.55171 9.83643 5.62854V7.43629ZM4.83643 19.6285V8.93629H5.14418C5.06718 8.93629 4.99668 8.96838 4.93268 9.03254C4.86851 9.09654 4.83643 9.16704 4.83643 9.24404V19.6285C4.83643 19.7055 4.86851 19.776 4.93268 19.84C4.99668 19.9042 5.06718 19.9363 5.14418 19.9363H4.83643V19.6285Z" fill="#3C4044"/>
</g>
</svg>
