<svg width="7" height="12" viewBox="0 0 7 12" fill="none" xmlns="http://www.w3.org/2000/svg">
<path d="M6.02125 5.93628C6.02125 5.81578 6.002 5.70361 5.9635 5.59978C5.925 5.49595 5.859 5.3972 5.7655 5.30353L1.27125 0.809281C1.13275 0.670948 0.958667 0.600115 0.749001 0.596781C0.539501 0.593615 0.36225 0.664448 0.21725 0.809281C0.0724167 0.954281 0 1.12995 0 1.33628C0 1.54261 0.0724167 1.71828 0.21725 1.86328L4.2905 5.93628L0.21725 10.0093C0.0789167 10.1478 0.00808339 10.3219 0.00475006 10.5315C0.00158339 10.741 0.0724167 10.9183 0.21725 11.0633C0.36225 11.2081 0.537917 11.2805 0.74425 11.2805C0.950584 11.2805 1.12625 11.2081 1.27125 11.0633L5.7655 6.56903C5.859 6.47536 5.925 6.37661 5.9635 6.27278C6.002 6.16895 6.02125 6.05678 6.02125 5.93628Z" fill="#3C4044" fill-opacity="0.8"/>
</svg>
