<svg width="25" height="25" viewBox="0 0 25 25" fill="none" xmlns="http://www.w3.org/2000/svg">
<mask id="mask0_546_22820" style="mask-type:alpha" maskUnits="userSpaceOnUse" x="0" y="0" width="25" height="25">
<rect x="0.836426" y="0.936279" width="24" height="24" fill="#D9D9D9"/>
</mask>
<g mask="url(#mask0_546_22820)">
<path d="M6.14418 21.4363C5.64551 21.4363 5.21951 21.2597 4.86618 20.9065C4.51301 20.5532 4.33643 20.1272 4.33643 19.6285V6.24403C4.33643 5.74536 4.51301 5.31936 4.86618 4.96603C5.21951 4.61286 5.64551 4.43628 6.14418 4.43628H19.5287C20.0273 4.43628 20.4533 4.61286 20.8067 4.96603C21.1598 5.31936 21.3364 5.74536 21.3364 6.24403V8.96528H19.8364V6.24403C19.8364 6.1542 19.8076 6.08045 19.7499 6.02278C19.6923 5.96511 19.6185 5.93628 19.5287 5.93628H6.14418C6.05434 5.93628 5.98059 5.96511 5.92293 6.02278C5.86526 6.08045 5.83643 6.1542 5.83643 6.24403V19.6285C5.83643 19.7184 5.86526 19.7921 5.92293 19.8498C5.98059 19.9074 6.05434 19.9363 6.14418 19.9363H19.5287C19.6185 19.9363 19.6923 19.9074 19.7499 19.8498C19.8076 19.7921 19.8364 19.7184 19.8364 19.6285V16.9073H21.3364V19.6285C21.3364 20.1272 21.1598 20.5532 20.8067 20.9065C20.4533 21.2597 20.0273 21.4363 19.5287 21.4363H6.14418ZM14.1442 17.4363C13.6455 17.4363 13.2195 17.2597 12.8662 16.9065C12.513 16.5532 12.3364 16.1272 12.3364 15.6285V10.244C12.3364 9.74536 12.513 9.31936 12.8662 8.96603C13.2195 8.61286 13.6455 8.43628 14.1442 8.43628H20.5287C21.0273 8.43628 21.4533 8.61286 21.8067 8.96603C22.1598 9.31936 22.3364 9.74536 22.3364 10.244V15.6285C22.3364 16.1272 22.1598 16.5532 21.8067 16.9065C21.4533 17.2597 21.0273 17.4363 20.5287 17.4363H14.1442ZM20.5287 15.9363C20.6185 15.9363 20.6923 15.9074 20.7499 15.8498C20.8076 15.7921 20.8364 15.7184 20.8364 15.6285V10.244C20.8364 10.1542 20.8076 10.0804 20.7499 10.0228C20.6923 9.96511 20.6185 9.93628 20.5287 9.93628H14.1442C14.0543 9.93628 13.9806 9.96511 13.9229 10.0228C13.8653 10.0804 13.8364 10.1542 13.8364 10.244V15.6285C13.8364 15.7184 13.8653 15.7921 13.9229 15.8498C13.9806 15.9074 14.0543 15.9363 14.1442 15.9363H20.5287ZM16.8364 14.4363C17.2531 14.4363 17.6073 14.2904 17.8989 13.9988C18.1906 13.7071 18.3364 13.3529 18.3364 12.9363C18.3364 12.5196 18.1906 12.1654 17.8989 11.8738C17.6073 11.5821 17.2531 11.4363 16.8364 11.4363C16.4198 11.4363 16.0656 11.5821 15.7739 11.8738C15.4823 12.1654 15.3364 12.5196 15.3364 12.9363C15.3364 13.3529 15.4823 13.7071 15.7739 13.9988C16.0656 14.2904 16.4198 14.4363 16.8364 14.4363Z" fill="#3C4044"/>
</g>
</svg>
