<svg width="20" height="20" viewBox="0 0 20 20" fill="none" xmlns="http://www.w3.org/2000/svg">
<path d="M10.125 2C8.51803 2 6.94714 2.47652 5.611 3.36931C4.27485 4.2621 3.23344 5.53105 2.61848 7.0157C2.00352 8.50035 1.84262 10.134 2.15612 11.7101C2.46963 13.2862 3.24346 14.7339 4.37976 15.8702C5.51606 17.0065 6.9638 17.7804 8.5399 18.0939C10.116 18.4074 11.7497 18.2465 13.2343 17.6315C14.719 17.0166 15.9879 15.9752 16.8807 14.639C17.7735 13.3029 18.25 11.732 18.25 10.125C18.2477 7.97081 17.391 5.90551 15.8677 4.38227C14.3445 2.85903 12.2792 2.00227 10.125 2ZM13.6922 8.69219L9.31719 13.0672C9.25915 13.1253 9.19022 13.1714 9.11434 13.2029C9.03847 13.2343 8.95714 13.2505 8.875 13.2505C8.79287 13.2505 8.71154 13.2343 8.63567 13.2029C8.55979 13.1714 8.49086 13.1253 8.43282 13.0672L6.55782 11.1922C6.44054 11.0749 6.37466 10.9159 6.37466 10.75C6.37466 10.5841 6.44054 10.4251 6.55782 10.3078C6.67509 10.1905 6.83415 10.1247 7 10.1247C7.16586 10.1247 7.32492 10.1905 7.44219 10.3078L8.875 11.7414L12.8078 7.80781C12.8659 7.74974 12.9348 7.70368 13.0107 7.67225C13.0866 7.64083 13.1679 7.62465 13.25 7.62465C13.3321 7.62465 13.4134 7.64083 13.4893 7.67225C13.5652 7.70368 13.6341 7.74974 13.6922 7.80781C13.7503 7.86588 13.7963 7.93482 13.8277 8.01069C13.8592 8.08656 13.8754 8.16788 13.8754 8.25C13.8754 8.33212 13.8592 8.41344 13.8277 8.48931C13.7963 8.56518 13.7503 8.63412 13.6922 8.69219Z" fill="#1DB669"/>
</svg>
