<svg width="25" height="24" viewBox="0 0 25 24" fill="none" xmlns="http://www.w3.org/2000/svg">
<mask id="mask0_546_20796" style="mask-type:alpha" maskUnits="userSpaceOnUse" x="0" y="0" width="25" height="24">
<rect x="0.0668945" width="24" height="24" fill="#D9D9D9"/>
</mask>
<g mask="url(#mask0_546_20796)">
<path d="M18.5071 21.5C16.6226 21.5 14.7294 21.0618 12.8274 20.1855C10.9256 19.3092 9.17814 18.073 7.58514 16.477C5.99231 14.8808 4.75773 13.1333 3.88139 11.2345C3.00506 9.33583 2.56689 7.44425 2.56689 5.55975C2.56689 5.25692 2.66689 5.00458 2.86689 4.80275C3.06689 4.60092 3.31689 4.5 3.61689 4.5H6.87839C7.13089 4.5 7.35364 4.58242 7.54664 4.74725C7.73964 4.91192 7.8624 5.11542 7.9149 5.35775L8.48814 8.3C8.52781 8.573 8.51948 8.80758 8.46314 9.00375C8.40664 9.19992 8.30531 9.36467 8.15914 9.498L5.84964 11.7463C6.22131 12.4269 6.64598 13.0708 7.12364 13.678C7.60114 14.285 8.11814 14.8648 8.67464 15.4173C9.22331 15.9661 9.80664 16.4757 10.4246 16.9462C11.0426 17.4167 11.71 17.8546 12.4266 18.2598L14.6706 15.9962C14.8271 15.8334 15.0166 15.7193 15.2391 15.6538C15.4615 15.5884 15.6926 15.5724 15.9324 15.6058L18.7091 16.1712C18.9616 16.2379 19.1677 16.3667 19.3274 16.5577C19.4871 16.7487 19.5669 16.9654 19.5669 17.2078V20.45C19.5669 20.75 19.466 21 19.2641 21.2C19.0623 21.4 18.81 21.5 18.5071 21.5ZM5.13989 10.327L6.92464 8.61925C6.95664 8.59358 6.97748 8.55833 6.98714 8.5135C6.99681 8.46867 6.99523 8.427 6.98239 8.3885L6.54764 6.15375C6.53481 6.10258 6.51239 6.06417 6.48039 6.0385C6.44839 6.01283 6.40673 6 6.35539 6H4.21689C4.17839 6 4.14631 6.01283 4.12064 6.0385C4.09514 6.06417 4.08239 6.09625 4.08239 6.13475C4.13356 6.81808 4.24539 7.51225 4.41789 8.21725C4.59023 8.92242 4.83089 9.62567 5.13989 10.327ZM13.8399 18.9693C14.5027 19.2783 15.1941 19.5145 15.9139 19.678C16.6339 19.8413 17.3066 19.9384 17.9321 19.9693C17.9706 19.9693 18.0027 19.9564 18.0284 19.9307C18.0541 19.9051 18.0669 19.873 18.0669 19.8345V17.7308C18.0669 17.6794 18.0541 17.6377 18.0284 17.6058C18.0027 17.5738 17.9643 17.5513 17.9131 17.5385L15.8131 17.1115C15.7746 17.0987 15.741 17.0971 15.7121 17.1068C15.6833 17.1164 15.6528 17.1373 15.6206 17.1693L13.8399 18.9693ZM12.8169 4C12.6044 4 12.4262 3.92808 12.2824 3.78425C12.1387 3.64042 12.0669 3.46225 12.0669 3.24975C12.0669 3.03708 12.1387 2.859 12.2824 2.7155C12.4262 2.57183 12.6044 2.5 12.8169 2.5H20.8169C21.0294 2.5 21.2075 2.57192 21.3511 2.71575C21.495 2.85958 21.5669 3.03775 21.5669 3.25025C21.5669 3.46292 21.495 3.641 21.3511 3.7845C21.2075 3.92817 21.0294 4 20.8169 4H12.8169ZM12.8169 7.69225C12.6044 7.69225 12.4262 7.62033 12.2824 7.4765C12.1387 7.33267 12.0669 7.1545 12.0669 6.942C12.0669 6.72933 12.1387 6.55125 12.2824 6.40775C12.4262 6.26408 12.6044 6.19225 12.8169 6.19225H20.8169C21.0294 6.19225 21.2075 6.26417 21.3511 6.408C21.495 6.55183 21.5669 6.73008 21.5669 6.94275C21.5669 7.15525 21.495 7.33333 21.3511 7.477C21.2075 7.6205 21.0294 7.69225 20.8169 7.69225H12.8169ZM12.8169 11.3845C12.6044 11.3845 12.4262 11.3126 12.2824 11.1687C12.1387 11.0251 12.0669 10.8469 12.0669 10.6342C12.0669 10.4216 12.1387 10.2435 12.2824 10.1C12.4262 9.95633 12.6044 9.8845 12.8169 9.8845H20.8169C21.0294 9.8845 21.2075 9.95642 21.3511 10.1003C21.495 10.2441 21.5669 10.4223 21.5669 10.635C21.5669 10.8475 21.495 11.0256 21.3511 11.1693C21.2075 11.3128 21.0294 11.3845 20.8169 11.3845H12.8169Z" fill="#3C4044"/>
</g>
</svg>
