<svg width="20" height="20" viewBox="0 0 20 20" fill="none" xmlns="http://www.w3.org/2000/svg">
<mask id="mask0_542_4665" style="mask-type:alpha" maskUnits="userSpaceOnUse" x="-1" y="0" width="21" height="20">
<rect x="-0.000244141" width="20" height="20" fill="#D9D9D9"/>
</mask>
<g mask="url(#mask0_542_4665)">
<path d="M6.7563 16.5834C6.38782 16.5834 6.07241 16.4522 5.81005 16.1898C5.54768 15.9275 5.4165 15.612 5.4165 15.2436V5.50002H4.95817C4.8047 5.50002 4.67609 5.4485 4.57234 5.34544C4.46845 5.24238 4.4165 5.11475 4.4165 4.96252C4.4165 4.81016 4.46845 4.68113 4.57234 4.57544C4.67609 4.46961 4.8047 4.41669 4.95817 4.41669H7.99984V4.16669C7.99984 3.98627 8.06373 3.83218 8.1915 3.7044C8.31914 3.57676 8.47317 3.51294 8.65359 3.51294H11.3461C11.5265 3.51294 11.6805 3.57676 11.8082 3.7044C11.9359 3.83218 11.9998 3.98627 11.9998 4.16669V4.41669H15.0415C15.195 4.41669 15.3236 4.46822 15.4273 4.57127C15.5312 4.67433 15.5832 4.80197 15.5832 4.95419C15.5832 5.10655 15.5312 5.23558 15.4273 5.34127C15.3236 5.44711 15.195 5.50002 15.0415 5.50002H14.5832V15.2346C14.5832 15.6132 14.452 15.9327 14.1896 16.1929C13.9273 16.4532 13.6119 16.5834 13.2434 16.5834H6.7563ZM13.4998 5.50002H6.49984V15.2436C6.49984 15.3184 6.52386 15.3799 6.57192 15.4279C6.61998 15.476 6.68143 15.5 6.7563 15.5H13.2434C13.3182 15.5 13.3797 15.476 13.4278 15.4279C13.4758 15.3799 13.4998 15.3184 13.4998 15.2436V5.50002ZM8.874 14C9.02623 14 9.15525 13.9481 9.26109 13.8444C9.36678 13.7405 9.41963 13.6118 9.41963 13.4584V7.54169C9.41963 7.38822 9.36817 7.25954 9.26525 7.15565C9.1622 7.0519 9.03449 7.00002 8.88213 7.00002C8.72991 7.00002 8.60088 7.0519 8.49505 7.15565C8.38935 7.25954 8.3365 7.38822 8.3365 7.54169V13.4584C8.3365 13.6118 8.38796 13.7405 8.49088 13.8444C8.59393 13.9481 8.72164 14 8.874 14ZM11.1175 14C11.2698 14 11.3988 13.9481 11.5046 13.8444C11.6103 13.7405 11.6632 13.6118 11.6632 13.4584V7.54169C11.6632 7.38822 11.6117 7.25954 11.5088 7.15565C11.4057 7.0519 11.278 7.00002 11.1257 7.00002C10.9734 7.00002 10.8444 7.0519 10.7386 7.15565C10.6329 7.25954 10.58 7.38822 10.58 7.54169V13.4584C10.58 13.6118 10.6315 13.7405 10.7344 13.8444C10.8375 13.9481 10.9652 14 11.1175 14Z" fill="#3C4044"/>
</g>
</svg>
