<svg width="22" height="23" viewBox="0 0 22 23" fill="none" xmlns="http://www.w3.org/2000/svg">
<g clip-path="url(#clip0_928_5282)">
<path d="M15.9504 0.25H2.38281V22.25H19.6166V3.91621L15.9504 0.25Z" fill="#E8E8E8"/>
<path d="M16.6899 11.1296C16.4256 10.6585 15.5122 10.5104 15.0931 10.4438C14.7628 10.3913 14.4256 10.3756 14.0915 10.3759C13.8292 10.3742 13.5708 10.3871 13.3156 10.4016C13.2216 10.4079 13.1285 10.416 13.0355 10.4241C12.9401 10.3254 12.848 10.2235 12.7588 10.1192C12.1914 9.44748 11.7332 8.68573 11.3599 7.89414C11.459 7.51167 11.5383 7.1125 11.5862 6.69796C11.6736 5.94135 11.7037 5.07909 11.4202 4.35775C11.3223 4.10879 11.0613 3.8057 10.7601 3.95663C10.4139 4.1302 10.3166 4.62195 10.2883 4.97054C10.2656 5.2523 10.2815 5.53478 10.3288 5.81183C10.377 6.09075 10.4546 6.35561 10.539 6.6201C10.6178 6.8626 10.7047 7.10322 10.7994 7.34158C10.7393 7.52923 10.6755 7.71361 10.6086 7.89327C10.4524 8.30274 10.2835 8.69175 10.1212 9.06595C10.0355 9.25149 9.95172 9.43312 9.86972 9.61068C9.61024 10.1807 9.32856 10.7402 9.0124 11.2811C8.27495 11.5412 7.61318 11.8428 7.0636 12.1972C6.76878 12.3876 6.50835 12.5945 6.29146 12.8214C6.08669 13.0356 5.87858 13.3136 5.86037 13.6213C5.85014 13.7951 5.91893 13.9636 6.06122 14.0667C6.25692 14.2129 6.51626 14.2031 6.74331 14.1555C7.48707 13.9995 8.05821 13.3602 8.54459 12.8213C8.87961 12.4502 9.26093 11.9789 9.6598 11.4089C9.66067 11.4076 9.66154 11.4063 9.66249 11.405C10.3466 11.1929 11.0912 11.0138 11.8814 10.8822C12.2424 10.8223 12.6129 10.7733 12.9909 10.7389C13.2567 10.9879 13.5439 11.2146 13.8572 11.4039C14.1013 11.554 14.3608 11.6808 14.6325 11.7754C14.9072 11.8651 15.1836 11.9384 15.469 11.9848C15.6131 12.0054 15.7605 12.0147 15.911 12.0091C16.2471 11.9964 16.7294 11.8675 16.761 11.4598C16.7708 11.335 16.7438 11.2255 16.6899 11.1296ZM8.64502 11.8777C8.48763 12.1215 8.33583 12.3408 8.19281 12.5338C7.84255 13.0104 7.44252 13.5764 6.86333 13.7881C6.75332 13.8283 6.60849 13.8698 6.45582 13.8608C6.31983 13.8528 6.18574 13.7928 6.19191 13.6384C6.19495 13.5576 6.2345 13.4544 6.29516 13.3531C6.36156 13.2421 6.44377 13.1402 6.5328 13.0465C6.72357 12.8461 6.96477 12.6518 7.24225 12.472C7.66782 12.1959 8.1759 11.9473 8.74225 11.7256C8.70967 11.7771 8.67716 11.8283 8.64502 11.8777ZM10.6203 5.76364C10.5766 5.50866 10.57 5.25012 10.5969 5.00152C10.6102 4.87722 10.6355 4.7559 10.6722 4.64219C10.7032 4.54569 10.7703 4.31015 10.8773 4.27989C11.0536 4.22997 11.1078 4.60853 11.1277 4.71563C11.2414 5.32486 11.1412 6.00237 11.0049 6.6C10.9832 6.69505 10.959 6.78859 10.9343 6.88176C10.8921 6.76558 10.8518 6.64905 10.8147 6.53193C10.7349 6.27615 10.6619 6.01739 10.6203 5.76364ZM11.8309 10.5731C11.1684 10.6805 10.5382 10.8212 9.94577 10.9873C10.0171 10.9673 10.343 10.3496 10.4158 10.2214C10.7583 9.618 11.0386 8.98475 11.2399 8.32045C11.5955 9.02365 12.027 9.69637 12.5571 10.2952C12.606 10.3495 12.6556 10.4032 12.7061 10.4562C12.409 10.4882 12.1167 10.5272 11.8309 10.5731ZM16.3111 11.4216C16.2869 11.5526 16.0072 11.6275 15.8766 11.6481C15.4909 11.7087 15.0828 11.6602 14.7136 11.5362C14.4603 11.4511 14.216 11.3353 13.9839 11.196C13.7531 11.0566 13.5372 10.8926 13.3354 10.7118C13.5843 10.6969 13.8361 10.6871 14.0892 10.6919C14.3423 10.6944 14.5974 10.7072 14.8493 10.74C15.3218 10.7927 15.8512 10.9549 16.2231 11.2615C16.2963 11.3219 16.3196 11.3753 16.3111 11.4216Z" fill="#FB3449"/>
<path d="M16.5178 2.08314H2.38281V0.25H15.9504L16.5178 2.08314Z" fill="#FB3449"/>
<path d="M9.2033 17.7485C9.2033 18.1375 9.08865 18.4379 8.85921 18.6498C8.62977 18.8618 8.30397 18.9677 7.88165 18.9677H7.61731V20.1227H6.67676V16.6412H7.88173C8.32145 16.6412 8.65168 16.7373 8.87235 16.9294C9.09301 17.1215 9.2033 17.3945 9.2033 17.7485ZM7.61738 18.201H7.78885C7.93013 18.201 8.04245 18.1613 8.12583 18.0819C8.2092 18.0025 8.25085 17.8929 8.25085 17.7533C8.25085 17.5183 8.12067 17.4008 7.86032 17.4008H7.61738V18.201Z" fill="#A4A9AD"/>
<path d="M12.7131 18.3081C12.7131 18.8891 12.5531 19.3368 12.2332 19.6512C11.9133 19.9655 11.4636 20.1227 10.8842 20.1227H9.75781V16.6412H10.9628C11.5216 16.6412 11.953 16.7841 12.257 17.0699C12.561 17.3556 12.7131 17.7684 12.7131 18.3081ZM11.7367 18.3415C11.7367 18.0224 11.6736 17.7859 11.5474 17.6319C11.4212 17.4779 11.2295 17.4009 10.9723 17.4009H10.6985V19.3511H10.9081C11.1939 19.3511 11.4034 19.2682 11.5367 19.1023C11.67 18.9365 11.7367 18.6828 11.7367 18.3415Z" fill="#A4A9AD"/>
<path d="M14.2632 20.1227H13.3369V16.6412H15.3944V17.3961H14.2632V18.0605H15.3063V18.8153H14.2632V20.1227Z" fill="#A4A9AD"/>
<path d="M15.9502 3.91621H19.6164L15.9502 0.25V3.91621Z" fill="#D1D3D3"/>
</g>
<defs>
<clipPath id="clip0_928_5282">
<rect width="22" height="22" fill="white" transform="translate(0 0.25)"/>
</clipPath>
</defs>
</svg>
