<svg width="80" height="81" viewBox="0 0 80 81" fill="none" xmlns="http://www.w3.org/2000/svg">
<g clip-path="url(#clip0_928_5297)">
<path d="M34.9999 65.75H22.4999C20.0185 65.7469 17.5662 65.2162 15.3056 64.193C13.0449 63.1699 11.0278 61.6776 9.38787 59.8154C7.74798 57.9531 6.52287 55.7634 5.79383 53.3916C5.0648 51.0197 4.8485 48.5199 5.1593 46.0581C5.4701 43.5962 6.30089 41.2286 7.59654 39.1124C8.89219 36.9961 10.6231 35.1796 12.6743 33.7834C14.7256 32.3871 17.0504 31.443 19.4943 31.0138C21.9383 30.5846 24.4456 30.68 26.8499 31.2937" stroke="#3C4044" stroke-width="2" stroke-linecap="round" stroke-linejoin="round"/>
<path d="M37.5 50.75L47.5 40.75L57.5 50.75" stroke="#3C4044" stroke-width="2" stroke-linecap="round" stroke-linejoin="round"/>
<path d="M47.5 65.75V40.75" stroke="#3C4044" stroke-width="2" stroke-linecap="round" stroke-linejoin="round"/>
<path d="M25 40.75C25.0011 36.243 26.2205 31.8201 28.5292 27.9494C30.838 24.0786 34.1502 20.904 38.1154 18.7614C42.0805 16.6189 46.5511 15.5881 51.0541 15.7781C55.5571 15.9681 59.925 17.3719 63.6955 19.841C67.4661 22.31 70.499 25.7524 72.4734 29.8039C74.4478 33.8554 75.2903 38.3653 74.9116 42.8564C74.5329 47.3474 72.9472 51.6526 70.3222 55.3163C67.6973 58.98 64.1307 61.8659 60 63.6687" stroke="#3C4044" stroke-width="2" stroke-linecap="round" stroke-linejoin="round"/>
</g>
<defs>
<clipPath id="clip0_928_5297">
<rect width="80" height="80" fill="white" transform="translate(0 0.75)"/>
</clipPath>
</defs>
</svg>
