<svg width="20" height="20" viewBox="0 0 20 20" fill="none" xmlns="http://www.w3.org/2000/svg">
<mask id="mask0_542_4658" style="mask-type:alpha" maskUnits="userSpaceOnUse" x="-1" y="0" width="21" height="20">
<rect x="-0.000244141" width="20" height="20" fill="#D9D9D9"/>
</mask>
<g mask="url(#mask0_542_4658)">
<path d="M4.49984 15.5001H5.42609L13.6232 7.303L12.6969 6.37675L4.49984 14.5738V15.5001ZM4.09025 16.5834C3.90206 16.5834 3.74275 16.5196 3.61234 16.392C3.48178 16.2643 3.4165 16.1061 3.4165 15.9174V14.6849C3.4165 14.5049 3.44859 14.3332 3.51275 14.1699C3.57678 14.0065 3.6772 13.8565 3.814 13.7197L13.7836 3.73404C13.8957 3.61959 14.0163 3.53814 14.1455 3.48966C14.2746 3.44105 14.41 3.41675 14.5515 3.41675C14.6932 3.41675 14.8284 3.43946 14.9571 3.48487C15.086 3.53029 15.2108 3.61071 15.3315 3.72612L16.2659 4.65237C16.3813 4.77307 16.463 4.89807 16.5111 5.02737C16.5591 5.15668 16.5832 5.2898 16.5832 5.42675C16.5832 5.57272 16.5579 5.71203 16.5073 5.84466C16.4566 5.9773 16.3762 6.09855 16.2659 6.20841L6.28025 16.1859C6.14345 16.3227 5.99373 16.4231 5.83109 16.4872C5.66845 16.5513 5.49741 16.5834 5.31796 16.5834H4.09025ZM13.1519 6.848L12.6969 6.37675L13.6232 7.303L13.1519 6.848Z" fill="#3C4044"/>
</g>
</svg>
