<svg width="13" height="13" viewBox="0 0 13 13" fill="none" xmlns="http://www.w3.org/2000/svg">
<path d="M11.3745 2.80375L2.04179 12.127C1.90329 12.2653 1.72929 12.3329 1.51979 12.3298C1.31012 12.3266 1.13604 12.2558 0.997539 12.1173C0.859206 11.9788 0.790039 11.8063 0.790039 11.6C0.790039 11.3937 0.859206 11.2213 0.997539 11.0828L10.3208 1.75H2.12454C1.91204 1.75 1.73387 1.67808 1.59004 1.53425C1.44637 1.39042 1.37454 1.21225 1.37454 0.99975C1.37454 0.787083 1.44637 0.609 1.59004 0.4655C1.73387 0.321833 1.91204 0.25 2.12454 0.25H11.9705C12.2267 0.25 12.4414 0.336584 12.6145 0.50975C12.7879 0.683084 12.8745 0.897751 12.8745 1.15375V11C12.8745 11.2125 12.8026 11.3906 12.6588 11.5343C12.515 11.6781 12.3368 11.75 12.1243 11.75C11.9116 11.75 11.7335 11.6781 11.5898 11.5343C11.4463 11.3906 11.3745 11.2125 11.3745 11V2.80375Z" fill="#3C4044"/>
</svg>
