<svg width="25" height="24" viewBox="0 0 25 24" fill="none" xmlns="http://www.w3.org/2000/svg">
<mask id="mask0_546_20769" style="mask-type:alpha" maskUnits="userSpaceOnUse" x="0" y="0" width="25" height="24">
<rect x="0.0668945" width="24" height="24" fill="#D9D9D9"/>
</mask>
<g mask="url(#mask0_546_20769)">
<path d="M12.4131 18.5H11.5669C9.33939 18.5 7.44923 17.7237 5.89639 16.171C4.34339 14.6185 3.56689 12.7288 3.56689 10.502C3.56689 8.275 4.34323 6.38458 5.89589 4.83075C7.44873 3.27692 9.33873 2.5 11.5659 2.5C12.6794 2.5 13.7198 2.708 14.6871 3.124C15.6545 3.54 16.5016 4.1115 17.2284 4.8385C17.9554 5.56533 18.5269 6.41183 18.9429 7.378C19.3589 8.344 19.5669 9.38467 19.5669 10.5C19.5669 12.573 19.0066 14.4878 17.8861 16.2443C16.7656 18.0006 15.3464 19.414 13.6284 20.4845C13.5002 20.5518 13.3721 20.5888 13.2439 20.5955C13.1157 20.6023 12.9977 20.5737 12.8899 20.5095C12.7822 20.4455 12.6912 20.3628 12.6169 20.2615C12.5426 20.1602 12.5002 20.0371 12.4899 19.8923L12.4131 18.5ZM14.0669 18.35C15.2502 17.35 16.2127 16.1792 16.9544 14.8375C17.6961 13.4958 18.0669 12.05 18.0669 10.5C18.0669 8.68333 17.4377 7.14583 16.1794 5.8875C14.9211 4.62917 13.3836 4 11.5669 4C9.75023 4 8.21273 4.62917 6.95439 5.8875C5.69606 7.14583 5.06689 8.68333 5.06689 10.5C5.06689 12.3167 5.69606 13.8542 6.95439 15.1125C8.21273 16.3708 9.75023 17 11.5669 17H14.0669V18.35ZM11.5721 15.773C11.8161 15.773 12.0237 15.6869 12.1949 15.5147C12.3659 15.3426 12.4514 15.1346 12.4514 14.8907C12.4514 14.6469 12.3654 14.4394 12.1934 14.2683C12.0212 14.0971 11.8131 14.0115 11.5691 14.0115C11.3253 14.0115 11.1178 14.0976 10.9466 14.2698C10.7755 14.4419 10.6899 14.6499 10.6899 14.8938C10.6899 15.1376 10.776 15.3451 10.9481 15.5163C11.1203 15.6874 11.3283 15.773 11.5721 15.773ZM9.44639 8.2885C9.59589 8.3525 9.74531 8.35308 9.89464 8.29025C10.044 8.22742 10.1661 8.12617 10.2611 7.9865C10.4046 7.77367 10.5892 7.60667 10.8149 7.4855C11.0406 7.36433 11.2976 7.30375 11.5861 7.30375C12.0316 7.30375 12.3936 7.42433 12.6721 7.6655C12.9506 7.9065 13.0899 8.22375 13.0899 8.61725C13.0899 8.86092 13.0258 9.09583 12.8976 9.322C12.7695 9.54833 12.5471 9.81983 12.2304 10.1365C11.8072 10.5288 11.4989 10.8811 11.3054 11.1932C11.1117 11.5054 11.0149 11.8153 11.0149 12.123C11.0149 12.2885 11.0718 12.4299 11.1856 12.5473C11.2993 12.6644 11.4365 12.723 11.5971 12.723C11.7578 12.723 11.892 12.6624 11.9996 12.5413C12.1073 12.4201 12.1816 12.2756 12.2226 12.1077C12.2803 11.8629 12.4111 11.619 12.6149 11.376C12.8187 11.133 13.0348 10.8974 13.2631 10.6693C13.6258 10.3064 13.8915 9.95425 14.0601 9.61275C14.2288 9.27142 14.3131 8.93 14.3131 8.5885C14.3131 7.86233 14.0634 7.27825 13.5639 6.83625C13.0646 6.39408 12.4117 6.173 11.6054 6.173C11.0936 6.173 10.6216 6.29742 10.1896 6.54625C9.75781 6.79492 9.41914 7.11467 9.17364 7.5055C9.08714 7.66467 9.07015 7.81892 9.12264 7.96825C9.17531 8.11758 9.28323 8.22433 9.44639 8.2885Z" fill="#3C4044"/>
</g>
</svg>
