<svg width="37" height="37" viewBox="0 0 37 37" fill="none" xmlns="http://www.w3.org/2000/svg">
<mask id="mask0_504_3603" style="mask-type:alpha" maskUnits="userSpaceOnUse" x="3" y="3" width="31" height="31">
<rect x="3.04736" y="3.5" width="30" height="30" fill="#D9D9D9"/>
</mask>
<g mask="url(#mask0_504_3603)">
<path d="M18.0475 29.4375C17.7817 29.4375 17.5591 29.3476 17.3797 29.1678C17.2001 28.9882 17.1104 28.7656 17.1104 28.5V23.5C17.1104 23.2344 17.2002 23.0118 17.38 22.8322C17.5598 22.6524 17.7825 22.5625 18.0482 22.5625C18.314 22.5625 18.5366 22.6524 18.716 22.8322C18.8956 23.0118 18.9854 23.2344 18.9854 23.5V25.0625H28.0479C28.3135 25.0625 28.5361 25.1524 28.7157 25.3322C28.8955 25.512 28.9854 25.7347 28.9854 26.0003C28.9854 26.2661 28.8955 26.4888 28.7157 26.6681C28.5361 26.8477 28.3135 26.9375 28.0479 26.9375H18.9854V28.5C18.9854 28.7656 18.8955 28.9882 18.7157 29.1678C18.5359 29.3476 18.3132 29.4375 18.0475 29.4375ZM8.04785 26.9375C7.78223 26.9375 7.55962 26.8476 7.38004 26.6678C7.20025 26.488 7.11035 26.2653 7.11035 25.9997C7.11035 25.7339 7.20025 25.5112 7.38004 25.3319C7.55962 25.1523 7.78223 25.0625 8.04785 25.0625H13.0479C13.3135 25.0625 13.5361 25.1524 13.7157 25.3322C13.8955 25.512 13.9854 25.7347 13.9854 26.0003C13.9854 26.2661 13.8955 26.4888 13.7157 26.6681C13.5361 26.8477 13.3135 26.9375 13.0479 26.9375H8.04785ZM13.0475 21.9375C12.7817 21.9375 12.5591 21.8476 12.3797 21.6678C12.2001 21.4882 12.1104 21.2656 12.1104 21V19.4375H8.04785C7.78223 19.4375 7.55962 19.3476 7.38004 19.1678C7.20025 18.988 7.11035 18.7653 7.11035 18.4997C7.11035 18.2339 7.20025 18.0112 7.38004 17.8319C7.55962 17.6523 7.78223 17.5625 8.04785 17.5625H12.1104V16C12.1104 15.7344 12.2002 15.5118 12.38 15.3322C12.5598 15.1524 12.7825 15.0625 13.0482 15.0625C13.314 15.0625 13.5366 15.1524 13.716 15.3322C13.8956 15.5118 13.9854 15.7344 13.9854 16V21C13.9854 21.2656 13.8955 21.4882 13.7157 21.6678C13.5359 21.8476 13.3132 21.9375 13.0475 21.9375ZM18.0479 19.4375C17.7822 19.4375 17.5596 19.3476 17.38 19.1678C17.2002 18.988 17.1104 18.7653 17.1104 18.4997C17.1104 18.2339 17.2002 18.0112 17.38 17.8319C17.5596 17.6523 17.7822 17.5625 18.0479 17.5625H28.0479C28.3135 17.5625 28.5361 17.6524 28.7157 17.8322C28.8955 18.012 28.9854 18.2347 28.9854 18.5003C28.9854 18.7661 28.8955 18.9888 28.7157 19.1681C28.5361 19.3477 28.3135 19.4375 28.0479 19.4375H18.0479ZM23.0475 14.4375C22.7817 14.4375 22.5591 14.3476 22.3797 14.1678C22.2001 13.9882 22.1104 13.7656 22.1104 13.5V8.5C22.1104 8.23438 22.2002 8.01177 22.38 7.83219C22.5598 7.6524 22.7825 7.5625 23.0482 7.5625C23.314 7.5625 23.5366 7.6524 23.716 7.83219C23.8956 8.01177 23.9854 8.23438 23.9854 8.5V10.0625H28.0479C28.3135 10.0625 28.5361 10.1524 28.7157 10.3322C28.8955 10.512 28.9854 10.7347 28.9854 11.0003C28.9854 11.2661 28.8955 11.4888 28.7157 11.6681C28.5361 11.8477 28.3135 11.9375 28.0479 11.9375H23.9854V13.5C23.9854 13.7656 23.8955 13.9882 23.7157 14.1678C23.5359 14.3476 23.3132 14.4375 23.0475 14.4375ZM8.04785 11.9375C7.78223 11.9375 7.55962 11.8476 7.38004 11.6678C7.20025 11.488 7.11035 11.2653 7.11035 10.9997C7.11035 10.7339 7.20025 10.5112 7.38004 10.3319C7.55962 10.1523 7.78223 10.0625 8.04785 10.0625H18.0479C18.3135 10.0625 18.5361 10.1524 18.7157 10.3322C18.8955 10.512 18.9854 10.7347 18.9854 11.0003C18.9854 11.2661 18.8955 11.4888 18.7157 11.6681C18.5361 11.8477 18.3135 11.9375 18.0479 11.9375H8.04785Z" fill="#1C1B1F"/>
</g>
</svg>
