<svg width="26" height="26" viewBox="0 0 26 26" fill="none" xmlns="http://www.w3.org/2000/svg">
<mask id="mask0_555_2222" style="mask-type:alpha" maskUnits="userSpaceOnUse" x="0" y="0" width="26" height="26">
<rect x="0.294426" y="0.319824" width="24.8435" height="24.8435" fill="#D9D9D9"/>
</mask>
<g mask="url(#mask0_555_2222)">
<path d="M12.7505 19.1186C12.5567 19.1186 12.3658 19.0858 12.1775 19.0202C11.9891 18.9545 11.8165 18.8559 11.6597 18.7244C9.78316 17.1493 8.37441 15.6079 7.43346 14.1002C6.49252 12.5927 6.02204 11.1335 6.02204 9.7228C6.02204 7.73204 6.64848 6.09867 7.90135 4.82268C9.15405 3.54669 10.7704 2.90869 12.7505 2.90869C14.7306 2.90869 16.3469 3.54669 17.5996 4.82268C18.8525 6.09867 19.4789 7.73204 19.4789 9.7228C19.4789 11.1335 19.0085 12.591 18.0675 14.0953C17.1266 15.5995 15.7177 17.1411 13.841 18.72C13.682 18.8544 13.5089 18.9545 13.3219 19.0202C13.1347 19.0858 12.9442 19.1186 12.7505 19.1186ZM12.7523 11.5084C13.2673 11.5084 13.7076 11.325 14.0732 10.9582C14.4389 10.5915 14.6218 10.1505 14.6218 9.63533C14.6218 9.12035 14.4384 8.68006 14.0716 8.31449C13.7048 7.94873 13.2638 7.76586 12.7487 7.76586C12.2337 7.76586 11.7934 7.94925 11.4278 8.31604C11.0621 8.68283 10.8792 9.1238 10.8792 9.63896C10.8792 10.1539 11.0626 10.5942 11.4294 10.9598C11.7962 11.3256 12.2371 11.5084 12.7523 11.5084ZM6.7984 22.5765C6.57843 22.5765 6.39409 22.502 6.24537 22.3531C6.09649 22.2043 6.02204 22.0198 6.02204 21.7999C6.02204 21.5797 6.09649 21.3954 6.24537 21.2468C6.39409 21.0981 6.57843 21.0238 6.7984 21.0238H18.7026C18.9226 21.0238 19.1069 21.0982 19.2556 21.2471C19.4045 21.396 19.4789 21.5804 19.4789 21.8004C19.4789 22.0205 19.4045 22.2049 19.2556 22.3534C19.1069 22.5021 18.9226 22.5765 18.7026 22.5765H6.7984Z" fill="#519E8A"/>
</g>
</svg>
