<svg width="26" height="26" viewBox="0 0 26 26" fill="none" xmlns="http://www.w3.org/2000/svg">
<mask id="mask0_555_2218" style="mask-type:alpha" maskUnits="userSpaceOnUse" x="0" y="0" width="26" height="26">
<rect x="0.648178" y="0.868652" width="24.8435" height="24.8435" fill="#D9D9D9"/>
</mask>
<g mask="url(#mask0_555_2218)">
<path d="M13.0944 15.4829C13.7034 15.4829 14.2188 15.2719 14.6408 14.85C15.0627 14.4281 15.2736 13.9127 15.2736 13.3036C15.2736 12.6946 15.0627 12.1791 14.6408 11.7572C14.2188 11.3353 13.7034 11.1244 13.0944 11.1244C12.4853 11.1244 11.9699 11.3353 11.548 11.7572C11.126 12.1791 10.9151 12.6946 10.9151 13.3036C10.9151 13.9127 11.126 14.4281 11.548 14.85C11.9699 15.2719 12.4853 15.4829 13.0944 15.4829ZM13.0959 21.5848C11.9505 21.5848 10.8738 21.3675 9.866 20.9328C8.85817 20.4981 7.98153 19.9082 7.23608 19.163C6.49062 18.4178 5.90041 17.5416 5.46543 16.5342C5.0306 15.5268 4.81318 14.4504 4.81318 13.3052C4.81318 12.1597 5.03052 11.0831 5.46521 10.0753C5.8999 9.06745 6.48983 8.19081 7.23499 7.44536C7.98015 6.69991 8.85642 6.10969 9.86382 5.67471C10.8712 5.23988 11.9476 5.02246 13.0928 5.02246C14.2382 5.02246 15.3149 5.23981 16.3227 5.67449C17.3305 6.10918 18.2072 6.69911 18.9526 7.44427C19.6981 8.18943 20.2883 9.06571 20.7233 10.0731C21.1581 11.0805 21.3755 12.1568 21.3755 13.3021C21.3755 14.4475 21.1582 15.5241 20.7235 16.532C20.2888 17.5398 19.6989 18.4165 18.9537 19.1619C18.2086 19.9074 17.3323 20.4976 16.3249 20.9326C15.3175 21.3674 14.2411 21.5848 13.0959 21.5848Z" fill="#519E8A"/>
</g>
</svg>
