<svg width="25" height="25" viewBox="0 0 25 25" fill="none" xmlns="http://www.w3.org/2000/svg">
<mask id="mask0_546_22909" style="mask-type:alpha" maskUnits="userSpaceOnUse" x="0" y="0" width="25" height="25">
<rect x="0.836426" y="0.936279" width="24" height="24" fill="#D9D9D9"/>
</mask>
<g mask="url(#mask0_546_22909)">
<path d="M6.14418 21.4363C5.63901 21.4363 5.21143 21.2613 4.86143 20.9113C4.51143 20.5613 4.33643 20.1337 4.33643 19.6285V6.24403C4.33643 5.73886 4.51143 5.31128 4.86143 4.96128C5.21143 4.61128 5.63901 4.43628 6.14418 4.43628H12.0962C12.3088 4.43628 12.487 4.50811 12.6307 4.65178C12.7742 4.79528 12.8459 4.97345 12.8459 5.18628C12.8459 5.39911 12.7742 5.57728 12.6307 5.72078C12.487 5.86445 12.3088 5.93628 12.0962 5.93628H6.14418C6.06718 5.93628 5.99668 5.96836 5.93268 6.03253C5.86851 6.09653 5.83643 6.16703 5.83643 6.24403V19.6285C5.83643 19.7055 5.86851 19.776 5.93268 19.84C5.99668 19.9042 6.06718 19.9363 6.14418 19.9363H12.0962C12.3088 19.9363 12.487 20.0081 12.6307 20.1518C12.7742 20.2953 12.8459 20.4734 12.8459 20.6863C12.8459 20.8991 12.7742 21.0773 12.6307 21.2208C12.487 21.3644 12.3088 21.4363 12.0962 21.4363H6.14418ZM18.4537 13.6863H10.6827C10.4698 13.6863 10.2916 13.6144 10.1479 13.4708C10.0044 13.3273 9.93268 13.1491 9.93268 12.9363C9.93268 12.7234 10.0044 12.5453 10.1479 12.4018C10.2916 12.2581 10.4698 12.1863 10.6827 12.1863H18.4537L16.5307 10.2633C16.3922 10.1248 16.3213 9.95586 16.3182 9.75653C16.315 9.5572 16.3858 9.37995 16.5307 9.22478C16.6755 9.06961 16.8512 8.98945 17.0577 8.98428C17.264 8.97928 17.4448 9.05428 17.5999 9.20928L20.6942 12.3035C20.8748 12.4844 20.9652 12.6953 20.9652 12.9363C20.9652 13.1773 20.8748 13.3882 20.6942 13.569L17.5999 16.6633C17.4513 16.8119 17.2747 16.8853 17.0702 16.8833C16.8657 16.8814 16.6858 16.8029 16.5307 16.6478C16.3858 16.4926 16.316 16.3144 16.3212 16.1133C16.3262 15.9119 16.4012 15.7389 16.5462 15.594L18.4537 13.6863Z" fill="#3C4044"/>
</g>
</svg>
