<svg width="24" height="26" viewBox="0 0 24 26" fill="none" xmlns="http://www.w3.org/2000/svg">
<path d="M12.5456 16.0251C12.408 16.0251 12.2822 15.9334 12.2445 15.7944L10.1935 8.13384C10.0922 7.75736 10.1447 7.36239 10.3407 7.02289C10.5367 6.6834 10.8525 6.44005 11.229 6.33872C12.0093 6.1294 12.814 6.59464 13.0234 7.37497L14.8407 14.1605C14.885 14.3262 14.7867 14.497 14.6202 14.5414C14.4546 14.5858 14.2837 14.4874 14.2393 14.3217L12.4228 7.53621C12.3022 7.0865 11.8392 6.81949 11.3902 6.94005C10.9413 7.06062 10.675 7.5229 10.7948 7.9726L12.8458 15.6324C12.8902 15.7988 12.7919 15.9696 12.6262 16.0133C12.5995 16.0214 12.5722 16.0251 12.5456 16.0251Z" fill="#3C4044" stroke="#3C4044" stroke-width="0.5"/>
<path d="M16.7437 13.8565C16.6061 13.8565 16.4804 13.7647 16.4427 13.6257L15.4759 10.014C15.4183 9.79802 15.2777 9.6168 15.0825 9.50364C14.8872 9.39047 14.6601 9.36015 14.4442 9.41858C14.2274 9.47627 14.0462 9.61606 13.9331 9.81207C13.8206 10.0073 13.7903 10.2344 13.848 10.4511C13.8924 10.6168 13.794 10.7877 13.6276 10.832C13.4619 10.8764 13.2911 10.778 13.2467 10.6124C13.0381 9.8313 13.5026 9.02583 14.2829 8.81651C15.0632 8.60719 15.868 9.07242 16.0773 9.85275L17.0447 13.4644C17.0884 13.6309 16.99 13.8017 16.8243 13.8461C16.7969 13.8528 16.7696 13.8565 16.7437 13.8565Z" fill="#3C4044" stroke="#3C4044" stroke-width="0.5"/>
<path d="M19.0492 13.5436C18.9116 13.5436 18.7859 13.4519 18.7489 13.3128L18.0263 10.6161C17.9057 10.1663 17.4434 9.89933 16.9945 10.0199C16.7777 10.0776 16.5965 10.2174 16.4834 10.4134C16.3709 10.6087 16.3406 10.8357 16.3983 11.0517C16.4427 11.2181 16.3443 11.389 16.1786 11.4334C16.0122 11.4777 15.8414 11.3794 15.797 11.2129C15.6964 10.8365 15.7489 10.4415 15.9449 10.102C16.1409 9.7625 16.4567 9.51916 16.8332 9.41782C17.6135 9.2085 18.4183 9.67374 18.6276 10.4541L19.3502 13.1508C19.3939 13.3172 19.2962 13.4881 19.1298 13.5325C19.1024 13.5406 19.0751 13.5436 19.0492 13.5436Z" fill="#3C4044" stroke="#3C4044" stroke-width="0.5"/>
<path d="M16.0485 22.3668C15.9945 22.3668 15.9405 22.3527 15.8931 22.3246C15.8214 22.2839 15.7696 22.2159 15.7482 22.136C15.277 20.3719 13.2992 19.1086 11.3872 17.8875C10.6106 17.3912 9.8769 16.923 9.23341 16.4185C8.40205 15.7684 8.41685 14.7255 8.91093 14.0931C9.3022 13.5931 10.0293 13.3483 10.7704 13.9281L12.7371 15.4673C12.8724 15.5739 12.8961 15.7691 12.7903 15.9052C12.6846 16.0406 12.4893 16.0642 12.3532 15.9585L10.3865 14.4185C9.86062 14.0065 9.52187 14.3224 9.40131 14.477C9.14317 14.8076 9.03888 15.4762 9.6158 15.9281C10.2364 16.4134 10.9575 16.8749 11.7216 17.3623C13.6328 18.5827 15.6054 19.8431 16.2563 21.6774L21.3177 20.3202C20.9419 18.7092 21.3006 18.1404 21.6194 17.6345C21.8842 17.2144 22.0928 16.883 21.8029 15.7987L20.5647 11.1744C20.4441 10.7255 19.9819 10.4577 19.5329 10.5783C19.0832 10.6988 18.8169 11.1619 18.9368 11.6108C18.9811 11.7773 18.8828 11.9481 18.7163 11.9917C18.5499 12.0361 18.3798 11.9378 18.3354 11.7721C18.2348 11.3956 18.2873 10.9999 18.4834 10.6604C18.6794 10.3209 18.9952 10.0775 19.3717 9.97696C20.152 9.76764 20.9567 10.2321 21.166 11.0132L22.4042 15.6375C22.7651 16.9836 22.45 17.4836 22.146 17.9659C21.8502 18.4363 21.5699 18.8801 21.9952 20.4607C22.0166 20.5406 22.0055 20.6256 21.9648 20.6966C21.9234 20.7684 21.8554 20.8202 21.7755 20.8423L16.1291 22.3557C16.1024 22.3631 16.0758 22.3668 16.0485 22.3668Z" fill="#3C4044" stroke="#3C4044" stroke-width="0.5"/>
<mask id="mask0_546_22860" style="mask-type:luminance" maskUnits="userSpaceOnUse" x="14" y="19" width="10" height="7">
<path d="M14.9355 19.9758H23.4163V24.9366H14.9355V19.9758Z" fill="white" stroke="white" stroke-width="0.5"/>
</mask>
<g mask="url(#mask0_546_22860)">
<path d="M15.9282 24.9238C15.7906 24.9238 15.6649 24.8321 15.6272 24.6931L14.997 22.3373C14.9756 22.2574 14.9867 22.1723 15.0281 22.1013C15.0695 22.0296 15.1375 21.9778 15.2174 21.9564L22.3675 20.0392C22.5332 19.9948 22.7041 20.0932 22.7484 20.2596L23.3786 22.6147C23.4001 22.6945 23.389 22.7796 23.3476 22.8513C23.3061 22.9223 23.2381 22.9749 23.1582 22.9956L16.0081 24.9127C15.9815 24.9201 15.9541 24.9238 15.9282 24.9238ZM15.6782 22.4778L16.1479 24.2315L22.6967 22.4756L22.2277 20.7219L15.6782 22.4778Z" fill="#3C4044" stroke="#3C4044" stroke-width="0.5"/>
</g>
<mask id="mask1_546_22860" style="mask-type:luminance" maskUnits="userSpaceOnUse" x="7" y="0" width="9" height="9">
<path d="M7.55078 0.936279H15.314V7.85714H7.55078V0.936279Z" fill="white" stroke="white" stroke-width="0.5"/>
</mask>
<g mask="url(#mask1_546_22860)">
<path d="M14.3506 7.70393H12.7049C12.5333 7.70393 12.3935 7.56487 12.3935 7.39254C12.3935 7.22094 12.5333 7.08115 12.7049 7.08115H14.3506C14.5385 7.08115 14.6908 6.92804 14.6908 6.74091V1.91028C14.6908 1.72315 14.5385 1.57005 14.3506 1.57005H8.53332C8.34546 1.57005 8.19309 1.72315 8.19309 1.91028V6.74091C8.19309 6.92804 8.34546 7.08115 8.53332 7.08115H10.5148C10.6864 7.08115 10.8255 7.22094 10.8255 7.39254C10.8255 7.56487 10.6864 7.70393 10.5148 7.70393H8.53332C8.00226 7.70393 7.57031 7.27197 7.57031 6.74091V1.91028C7.57031 1.37996 8.00226 0.947266 8.53332 0.947266H14.3513C14.8824 0.947266 15.3143 1.37922 15.3143 1.91028V6.74091C15.3136 7.27197 14.8817 7.70393 14.3506 7.70393Z" fill="#3C4044" stroke="#3C4044" stroke-width="0.5"/>
</g>
<mask id="mask2_546_22860" style="mask-type:luminance" maskUnits="userSpaceOnUse" x="17" y="2" width="7" height="7">
<path d="M17.397 2.93408H23.4162V8.23586H17.397V2.93408Z" fill="white" stroke="white" stroke-width="0.5"/>
</mask>
<g mask="url(#mask2_546_22860)">
<path d="M22.6264 8.22766H18.3454C17.909 8.22766 17.5547 7.87337 17.5547 7.43698V3.8815C17.5547 3.44511 17.909 3.09082 18.3454 3.09082H22.6264C23.0628 3.09082 23.4171 3.44511 23.4171 3.8815V7.43624C23.4171 7.87263 23.0628 8.22766 22.6264 8.22766ZM18.3454 3.7136C18.2536 3.7136 18.1775 3.79053 18.1775 3.8815V7.43624C18.1775 7.52795 18.2544 7.60488 18.3454 7.60488H22.6264C22.7181 7.60488 22.795 7.52721 22.795 7.43624V3.8815C22.795 3.79053 22.7174 3.7136 22.6264 3.7136H18.3454Z" fill="#3C4044" stroke="#3C4044" stroke-width="0.5"/>
</g>
<path d="M20.4854 6.74161C19.8893 6.74161 19.4033 6.2564 19.4033 5.65877C19.4033 5.06187 19.8885 4.57593 20.4854 4.57593C21.0823 4.57593 21.5675 5.06187 21.5675 5.65877C21.5675 6.2564 21.0823 6.74161 20.4854 6.74161ZM20.4854 5.19945C20.2325 5.19945 20.0254 5.40581 20.0254 5.65951C20.0254 5.91321 20.2325 6.11957 20.4854 6.11957C20.7391 6.11957 20.9455 5.91321 20.9455 5.65951C20.9455 5.40581 20.7391 5.19945 20.4854 5.19945Z" fill="#3C4044" stroke="#3C4044" stroke-width="0.5"/>
<mask id="mask3_546_22860" style="mask-type:luminance" maskUnits="userSpaceOnUse" x="0" y="6" width="8" height="7">
<path d="M0.836426 7.09985H6.79349V12.4016H0.836426V7.09985Z" fill="white" stroke="white" stroke-width="0.5"/>
</mask>
<g mask="url(#mask3_546_22860)">
<path d="M5.90863 12.2662H1.62759C1.1912 12.2662 0.836914 11.9119 0.836914 11.4756V7.92082C0.836914 7.48442 1.1912 7.12939 1.62759 7.12939H5.90863C6.34502 7.12939 6.6993 7.48442 6.6993 7.92082V11.4756C6.70004 11.9119 6.34502 12.2662 5.90863 12.2662ZM1.62759 7.75218C1.53587 7.75218 1.45969 7.82984 1.45969 7.92082V11.4756C1.45969 11.5665 1.53661 11.6435 1.62759 11.6435H5.90863C6.00034 11.6435 6.07727 11.5665 6.07727 11.4756V7.92082C6.07727 7.8291 5.9996 7.75218 5.90863 7.75218H1.62759Z" fill="#3C4044" stroke="#3C4044" stroke-width="0.5"/>
</g>
<path d="M3.76813 10.7809C3.17198 10.7809 2.68604 10.295 2.68604 9.69808C2.68604 9.10044 3.17124 8.61523 3.76813 8.61523C4.36502 8.61523 4.85022 9.10044 4.85022 9.69808C4.85022 10.295 4.36502 10.7809 3.76813 10.7809ZM3.76813 9.23802C3.51517 9.23802 3.30807 9.44438 3.30807 9.69808C3.30807 9.95103 3.51517 10.1581 3.76813 10.1581C4.02183 10.1581 4.22819 9.95103 4.22819 9.69808C4.22819 9.44438 4.02183 9.23802 3.76813 9.23802Z" fill="#3C4044" stroke="#3C4044" stroke-width="0.5"/>
<path d="M10.6143 5.84536C10.5351 5.84536 10.4553 5.81504 10.3946 5.75365L9.63352 4.99181C9.51148 4.87051 9.51148 4.67302 9.63352 4.55172C9.75482 4.42968 9.95231 4.42968 10.0736 4.55172L10.6143 5.0924L12.8095 2.8964C12.9308 2.77509 13.1283 2.77509 13.2496 2.8964C13.3717 3.01844 13.3717 3.21592 13.2496 3.33723L10.8347 5.75291C10.774 5.81504 10.6942 5.84536 10.6143 5.84536Z" fill="#3C4044" stroke="#3C4044" stroke-width="0.5"/>
</svg>
