<svg width="31" height="32" viewBox="0 0 31 32" fill="none" xmlns="http://www.w3.org/2000/svg">
<path d="M15.5006 31.9999C18.3541 31.9999 20.6673 29.6892 20.6673 26.8388C20.6673 23.9884 18.3541 21.6777 15.5006 21.6777C12.6472 21.6777 10.334 23.9884 10.334 26.8388C10.334 29.6892 12.6472 31.9999 15.5006 31.9999Z" fill="#FFC850"/>
<path d="M26.8665 18.5257V11.3543C26.8665 5.08345 21.7775 0 15.4999 0C9.22222 0 4.13326 5.08345 4.13326 11.3543V18.5257C4.13326 19.2289 3.89361 19.911 3.45401 20.4602L0.33527 24.3544C0.118252 24.6253 0 24.9621 0 25.3092C0 26.1532 0.684943 26.8375 1.53002 26.8375H29.47C30.3149 26.8375 31 26.1533 31 25.3092C31 24.9621 30.8819 24.6255 30.6647 24.3544L27.546 20.4602C27.1061 19.9111 26.8665 19.2287 26.8665 18.5257Z" fill="#FFDC64"/>
<path d="M22.7333 14.9025C22.0199 14.9025 21.4416 14.3248 21.4416 13.6122V11.3543C21.4416 9.95824 20.9451 8.60145 20.043 7.53349C19.5829 6.98857 19.6515 6.17476 20.1974 5.71496C20.7423 5.25576 21.5576 5.32528 22.0168 5.86911C23.3114 7.40231 24.0249 9.34985 24.0249 11.3543V13.6122C24.0249 14.325 23.4468 14.9025 22.7333 14.9025ZM17.5647 5.71907C17.4427 5.71907 17.3174 5.70142 17.1954 5.66466C16.8413 5.55972 16.476 5.48729 16.1075 5.44994C15.3982 5.37727 14.8815 4.74433 14.9541 4.0351C15.0268 3.32551 15.6727 2.80635 16.3698 2.8824C16.8986 2.93632 17.4243 3.04018 17.9319 3.19179C18.6161 3.39491 19.0056 4.11369 18.8017 4.79656C18.6343 5.3566 18.1207 5.71907 17.5647 5.71907Z" fill="#FFF082"/>
<path d="M4.13326 11.3543V18.5257C4.13326 19.2289 3.89361 19.911 3.45401 20.4602L0.33527 24.3544C0.118253 24.6253 0 24.9621 0 25.3091C0 26.1531 0.684942 26.8374 1.53002 26.8374H7.11801C6.61099 26.8374 6.20007 26.1532 6.20007 25.3091C6.20007 24.9621 6.271 24.6253 6.40123 24.3544L8.27245 20.4602C8.53619 19.9111 8.6801 19.2289 8.6801 18.5257V11.3543C8.6801 5.08345 11.7335 0 15.5001 0C9.2221 0 4.13326 5.08333 4.13326 11.3543Z" fill="#FFC850"/>
</svg>
