<svg width="25" height="25" viewBox="0 0 25 25" fill="none" xmlns="http://www.w3.org/2000/svg">
<mask id="mask0_546_22897" style="mask-type:alpha" maskUnits="userSpaceOnUse" x="0" y="0" width="25" height="25">
<rect x="0.836426" y="0.936279" width="24" height="24" fill="#D9D9D9"/>
</mask>
<g mask="url(#mask0_546_22897)">
<path d="M7.83643 14.5515C7.39226 14.5515 7.01201 14.3934 6.69568 14.077C6.37934 13.7607 6.22118 13.3804 6.22118 12.9363C6.22118 12.4921 6.37934 12.1119 6.69568 11.7955C7.01201 11.4792 7.39226 11.321 7.83643 11.321C8.28059 11.321 8.66084 11.4792 8.97718 11.7955C9.29351 12.1119 9.45168 12.4921 9.45168 12.9363C9.45168 13.3804 9.29351 13.7607 8.97718 14.077C8.66084 14.3934 8.28059 14.5515 7.83643 14.5515ZM7.83643 18.4363C6.30859 18.4363 5.01001 17.9018 3.94068 16.8328C2.87118 15.7638 2.33643 14.4657 2.33643 12.9385C2.33643 11.4114 2.87118 10.1125 3.94068 9.04203C5.01001 7.97153 6.30859 7.43628 7.83643 7.43628C8.90826 7.43628 9.87751 7.71286 10.7442 8.26603C11.6108 8.81936 12.2723 9.54278 12.7287 10.4363H21.3537C21.4715 10.4363 21.5856 10.4581 21.6959 10.5018C21.8063 10.5453 21.9082 10.6139 22.0017 10.7075L23.5979 12.3035C23.6916 12.3972 23.7576 12.4964 23.7959 12.601C23.8344 12.7057 23.8537 12.8179 23.8537 12.9375C23.8537 13.0572 23.8344 13.1689 23.7959 13.2728C23.7576 13.3766 23.6916 13.4754 23.5979 13.569L20.9519 16.2055C20.8769 16.283 20.787 16.345 20.6822 16.3915C20.5773 16.438 20.473 16.4664 20.3692 16.4765C20.2653 16.4869 20.1615 16.4769 20.0577 16.4468C19.9538 16.4166 19.8551 16.3663 19.7614 16.2958L18.5287 15.369L17.1327 16.4055C17.0557 16.4657 16.9736 16.5093 16.8864 16.5363C16.7993 16.5631 16.7088 16.5765 16.6152 16.5765C16.5217 16.5765 16.4288 16.5615 16.3364 16.5315C16.2441 16.5014 16.1595 16.4594 16.0827 16.4055L14.6729 15.4363H12.7287C12.2723 16.3234 11.6108 17.0452 10.7442 17.6015C9.87751 18.158 8.90826 18.4363 7.83643 18.4363ZM7.83643 16.9363C8.79543 16.9363 9.62584 16.6465 10.3277 16.067C11.0297 15.4875 11.4878 14.7773 11.7019 13.9363H15.1442L16.5844 14.9325C16.5781 14.9325 16.5765 14.935 16.5797 14.94C16.5828 14.9452 16.5844 14.9427 16.5844 14.9325L18.5384 13.5035L20.2364 14.8018L22.1019 12.9363L21.1019 11.9363H11.7019C11.4878 11.0953 11.0297 10.385 10.3277 9.80553C9.62584 9.22603 8.79543 8.93628 7.83643 8.93628C6.73643 8.93628 5.79476 9.32795 5.01143 10.1113C4.22809 10.8946 3.83643 11.8363 3.83643 12.9363C3.83643 14.0363 4.22809 14.9779 5.01143 15.7613C5.79476 16.5446 6.73643 16.9363 7.83643 16.9363Z" fill="#3C4044"/>
</g>
</svg>
