<svg width="25" height="24" viewBox="0 0 25 24" fill="none" xmlns="http://www.w3.org/2000/svg">
<mask id="mask0_546_20787" style="mask-type:alpha" maskUnits="userSpaceOnUse" x="0" y="0" width="25" height="24">
<rect x="0.0668945" width="24" height="24" fill="#D9D9D9"/>
</mask>
<g mask="url(#mask0_546_20787)">
<path d="M11.3496 14.7499H12.7841C12.9198 14.7499 13.0374 14.6934 13.1369 14.5804C13.2364 14.4674 13.2695 14.3432 13.2361 14.2077L12.7611 11.5922C13.0751 11.4575 13.328 11.2459 13.5196 10.9572C13.7113 10.6685 13.8071 10.3494 13.8071 9.99994C13.8071 9.52127 13.6366 9.11152 13.2956 8.77069C12.9546 8.43002 12.5447 8.25969 12.0659 8.25969C11.5871 8.25969 11.1775 8.43002 10.8371 8.77069C10.4968 9.11152 10.3266 9.52127 10.3266 9.99994C10.3266 10.3494 10.4225 10.6685 10.6141 10.9572C10.8058 11.2459 11.0586 11.4575 11.3726 11.5922L10.8976 14.2077C10.8643 14.3432 10.8974 14.4674 10.9969 14.5804C11.0964 14.6934 11.214 14.7499 11.3496 14.7499ZM12.0669 21.3709C11.9631 21.3709 11.8611 21.3626 11.7611 21.3459C11.6611 21.3293 11.5643 21.3043 11.4706 21.2709C9.36181 20.5209 7.68398 19.1912 6.43714 17.2817C5.19031 15.372 4.56689 13.3114 4.56689 11.0999V6.59619C4.56689 6.21636 4.67614 5.87444 4.89464 5.57044C5.11298 5.26661 5.39539 5.04636 5.74189 4.90969L11.4341 2.78469C11.6483 2.70769 11.8592 2.66919 12.0669 2.66919C12.2746 2.66919 12.4855 2.70769 12.6996 2.78469L18.3919 4.90969C18.7384 5.04636 19.0208 5.26661 19.2391 5.57044C19.4576 5.87444 19.5669 6.21636 19.5669 6.59619V11.0999C19.5669 13.3114 18.9435 15.372 17.6966 17.2817C16.4498 19.1912 14.772 20.5209 12.6631 21.2709C12.5695 21.3043 12.4726 21.3293 12.3726 21.3459C12.2726 21.3626 12.1707 21.3709 12.0669 21.3709ZM12.0669 19.8999C13.8002 19.3499 15.2336 18.2499 16.3669 16.5999C17.5002 14.9499 18.0669 13.1166 18.0669 11.0999V6.58644C18.0669 6.52244 18.0492 6.46477 18.0139 6.41344C17.9787 6.36211 17.9291 6.32361 17.8649 6.29794L12.1726 4.17294C12.1406 4.16011 12.1054 4.15369 12.0669 4.15369C12.0284 4.15369 11.9931 4.16011 11.9611 4.17294L6.26889 6.29794C6.20473 6.32361 6.15506 6.36211 6.11989 6.41344C6.08456 6.46477 6.06689 6.52244 6.06689 6.58644V11.0999C6.06689 13.1166 6.63356 14.9499 7.76689 16.5999C8.90023 18.2499 10.3336 19.3499 12.0669 19.8999Z" fill="#3C4044"/>
</g>
</svg>
