<svg width="25" height="24" viewBox="0 0 25 24" fill="none" xmlns="http://www.w3.org/2000/svg">
<mask id="mask0_546_20723" style="mask-type:alpha" maskUnits="userSpaceOnUse" x="0" y="0" width="25" height="24">
<rect x="0.0668945" width="24" height="24" fill="#D9D9D9"/>
</mask>
<g mask="url(#mask0_546_20723)">
<path d="M11.3169 19.5693V12.4308L5.06689 8.8116V15.7771C5.06689 15.8283 5.07973 15.8763 5.10539 15.9213C5.13106 15.9662 5.16948 16.0046 5.22064 16.0366L11.3169 19.5693ZM12.8169 19.5693L18.9131 16.0366C18.9643 16.0046 19.0027 15.9662 19.0284 15.9213C19.0541 15.8763 19.0669 15.8283 19.0669 15.7771V8.8116L12.8169 12.4308V19.5693ZM11.1631 21.2058L4.47089 17.3538C4.18623 17.1898 3.96439 16.9707 3.80539 16.6963C3.64639 16.4218 3.56689 16.1205 3.56689 15.7923V8.20785C3.56689 7.87968 3.64639 7.57835 3.80539 7.30385C3.96439 7.02951 4.18623 6.81035 4.47089 6.64635L11.1631 2.79435C11.4476 2.63018 11.7489 2.5481 12.0669 2.5481C12.3849 2.5481 12.6861 2.63018 12.9706 2.79435L19.6629 6.64635C19.9476 6.81035 20.1694 7.02951 20.3284 7.30385C20.4874 7.57835 20.5669 7.87968 20.5669 8.20785V15.7923C20.5669 16.1205 20.4874 16.4218 20.3284 16.6963C20.1694 16.9707 19.9476 17.1898 19.6629 17.3538L12.9706 21.2058C12.6861 21.37 12.3849 21.4521 12.0669 21.4521C11.7489 21.4521 11.4476 21.37 11.1631 21.2058ZM15.9226 8.9001L18.2419 7.56935L12.2206 4.0866C12.1695 4.0546 12.1182 4.0386 12.0669 4.0386C12.0156 4.0386 11.9643 4.0546 11.9131 4.0866L9.74189 5.3366L15.9226 8.9001ZM12.0669 11.1386L14.3919 9.79235L8.21689 6.2231L5.89189 7.56935L12.0669 11.1386Z" fill="#3C4044"/>
</g>
</svg>
