<svg width="20" height="20" viewBox="0 0 20 20" fill="none" xmlns="http://www.w3.org/2000/svg">
<mask id="mask0_542_4679" style="mask-type:alpha" maskUnits="userSpaceOnUse" x="0" y="0" width="20" height="20">
<rect width="20" height="20" fill="#D9D9D9"/>
</mask>
<g mask="url(#mask0_542_4679)">
<path d="M5.29183 10.016C5.29183 10.7088 5.43245 11.3522 5.7137 11.9462C5.99482 12.5402 6.37558 13.0491 6.856 13.4727L7.17641 13.7933V12.782C7.17641 12.6286 7.22794 12.4999 7.331 12.396C7.43405 12.2923 7.56169 12.2404 7.71391 12.2404C7.86627 12.2404 7.99537 12.2923 8.1012 12.396C8.2069 12.4999 8.25975 12.6286 8.25975 12.782V15.0577C8.25975 15.2474 8.19558 15.4065 8.06725 15.535C7.93877 15.6633 7.77968 15.7275 7.58995 15.7275H5.31433C5.16086 15.7275 5.03218 15.6759 4.92829 15.5729C4.82454 15.47 4.77266 15.3423 4.77266 15.19C4.77266 15.0376 4.82454 14.9086 4.92829 14.8029C5.03218 14.697 5.16086 14.6441 5.31433 14.6441H6.4585L6.186 14.3558C5.5985 13.8055 5.12204 13.1618 4.75662 12.4245C4.3912 11.6875 4.2085 10.8846 4.2085 10.016C4.2085 8.8835 4.50336 7.85628 5.09308 6.93434C5.6828 6.01225 6.46225 5.31253 7.43141 4.83517C7.56266 4.76656 7.69454 4.76031 7.82704 4.81642C7.95954 4.87253 8.05252 4.97378 8.106 5.12017C8.15933 5.25739 8.15607 5.39614 8.0962 5.53642C8.0362 5.67684 7.9403 5.78281 7.8085 5.85434C7.04058 6.25961 6.42912 6.8267 5.97412 7.55559C5.51926 8.28461 5.29183 9.10475 5.29183 10.016ZM14.7085 9.98392C14.7085 9.29114 14.5679 8.64774 14.2866 8.05371C14.0055 7.45968 13.6247 6.95086 13.1443 6.52725L12.8239 6.20663V7.21788C12.8239 7.37135 12.7724 7.50003 12.6693 7.60392C12.5663 7.70767 12.4386 7.75954 12.2864 7.75954C12.1341 7.75954 12.005 7.70767 11.8991 7.60392C11.7934 7.50003 11.7406 7.37135 11.7406 7.21788V4.94225C11.7406 4.75253 11.8047 4.59343 11.9331 4.46496C12.0616 4.33663 12.2206 4.27246 12.4104 4.27246H14.686C14.8395 4.27246 14.9682 4.32399 15.072 4.42704C15.1758 4.52996 15.2277 4.6576 15.2277 4.80996C15.2277 4.96232 15.1758 5.09135 15.072 5.19704C14.9682 5.30288 14.8395 5.35579 14.686 5.35579H13.5418L13.8143 5.64413C14.417 6.17732 14.8972 6.81628 15.2552 7.561C15.6129 8.30559 15.7918 9.11364 15.7918 9.98517C15.7918 11.1168 15.4983 12.1423 14.9112 13.0616C14.3241 13.9809 13.546 14.6793 12.5768 15.1568C12.4456 15.2253 12.3137 15.2318 12.1812 15.1762C12.0487 15.1207 11.9558 15.0201 11.9025 14.8745C11.849 14.738 11.8455 14.6036 11.892 14.4712C11.9384 14.3387 12.0279 14.2372 12.1604 14.1666C12.9168 13.7757 13.5306 13.2121 14.0018 12.476C14.4729 11.7398 14.7085 10.9091 14.7085 9.98392Z" fill="#3C4044"/>
</g>
</svg>
