<svg width="25" height="24" viewBox="0 0 25 24" fill="none" xmlns="http://www.w3.org/2000/svg">
<mask id="mask0_546_20778" style="mask-type:alpha" maskUnits="userSpaceOnUse" x="0" y="0" width="25" height="24">
<rect x="0.0668945" width="24" height="24" fill="#D9D9D9"/>
</mask>
<g mask="url(#mask0_546_20778)">
<path d="M9.06689 17.75H15.0669C15.2797 17.75 15.4579 17.6782 15.6014 17.5345C15.7451 17.391 15.8169 17.2128 15.8169 17C15.8169 16.7872 15.7451 16.609 15.6014 16.4655C15.4579 16.3218 15.2797 16.25 15.0669 16.25H9.06689C8.85406 16.25 8.67589 16.3218 8.53239 16.4655C8.38873 16.609 8.31689 16.7872 8.31689 17C8.31689 17.2128 8.38873 17.391 8.53239 17.5345C8.67589 17.6782 8.85406 17.75 9.06689 17.75ZM9.06689 13.75H15.0669C15.2797 13.75 15.4579 13.6782 15.6014 13.5345C15.7451 13.391 15.8169 13.2128 15.8169 13C15.8169 12.7872 15.7451 12.609 15.6014 12.4655C15.4579 12.3218 15.2797 12.25 15.0669 12.25H9.06689C8.85406 12.25 8.67589 12.3218 8.53239 12.4655C8.38873 12.609 8.31689 12.7872 8.31689 13C8.31689 13.2128 8.38873 13.391 8.53239 13.5345C8.67589 13.6782 8.85406 13.75 9.06689 13.75ZM6.37464 21.5C5.86948 21.5 5.44189 21.325 5.09189 20.975C4.74189 20.625 4.56689 20.1974 4.56689 19.6923V4.30775C4.56689 3.80258 4.74189 3.375 5.09189 3.025C5.44189 2.675 5.86948 2.5 6.37464 2.5H13.5689C13.8099 2.5 14.0416 2.54683 14.2641 2.6405C14.4865 2.734 14.6797 2.86283 14.8439 3.027L19.0399 7.223C19.2041 7.38717 19.3329 7.58042 19.4264 7.80275C19.5201 8.02525 19.5669 8.257 19.5669 8.498V19.6923C19.5669 20.1974 19.3919 20.625 19.0419 20.975C18.6919 21.325 18.2643 21.5 17.7591 21.5H6.37464ZM13.5669 7.596V4H6.37464C6.29764 4 6.22714 4.03208 6.16314 4.09625C6.09898 4.16025 6.06689 4.23075 6.06689 4.30775V19.6923C6.06689 19.7693 6.09898 19.8398 6.16314 19.9038C6.22714 19.9679 6.29764 20 6.37464 20H17.7591C17.8361 20 17.9066 19.9679 17.9706 19.9038C18.0348 19.8398 18.0669 19.7693 18.0669 19.6923V8.5H14.4709C14.2131 8.5 13.998 8.41375 13.8256 8.24125C13.6531 8.06892 13.5669 7.85383 13.5669 7.596Z" fill="#3C4044"/>
</g>
</svg>
