<svg width="20" height="20" viewBox="0 0 20 20" fill="none" xmlns="http://www.w3.org/2000/svg">
<mask id="mask0_542_4672" style="mask-type:alpha" maskUnits="userSpaceOnUse" x="0" y="0" width="20" height="20">
<rect width="20" height="20" fill="#D9D9D9"/>
</mask>
<g mask="url(#mask0_542_4672)">
<path d="M17.2434 7.39592C17.5703 7.39592 17.8753 7.53752 18.1584 7.82071C18.4416 8.10377 18.5832 8.40877 18.5832 8.73571V9.60259C18.5832 9.70398 18.5754 9.79773 18.5598 9.88384C18.5444 9.96981 18.5159 10.0492 18.4742 10.122L16.1067 15.6949C15.9874 15.9753 15.763 16.1935 15.4334 16.3495C15.1038 16.5054 14.7863 16.5834 14.4809 16.5834L5.67609 16.5626V7.39592L10.3988 2.67321C10.62 2.4521 10.8674 2.30467 11.1409 2.23092C11.4144 2.15717 11.6544 2.18065 11.8611 2.30134C12.0679 2.42217 12.1934 2.62599 12.2378 2.9128C12.2821 3.1996 12.2706 3.51773 12.2034 3.86717L11.535 7.39592H17.2434ZM6.75942 7.84467V15.4793H14.7755C14.8342 15.4793 14.8943 15.4632 14.9557 15.4311C15.0172 15.399 15.064 15.3456 15.0961 15.2709L17.4998 9.66676V8.73571C17.4998 8.66085 17.4758 8.5994 17.4278 8.55134C17.3797 8.50328 17.3182 8.47926 17.2434 8.47926H10.2467L11.1873 3.45363L6.75942 7.84467ZM2.7563 16.5626C2.36977 16.5626 2.04984 16.4314 1.7965 16.169C1.54317 15.9067 1.4165 15.5913 1.4165 15.2228V8.73571C1.4165 8.36724 1.54317 8.05183 1.7965 7.78946C2.04984 7.5271 2.36977 7.39592 2.7563 7.39592H5.67609V8.47926H2.7563C2.68143 8.47926 2.61998 8.50328 2.57192 8.55134C2.52387 8.5994 2.49984 8.66085 2.49984 8.73571V15.2228C2.49984 15.2977 2.52387 15.3591 2.57192 15.4072C2.61998 15.4552 2.68143 15.4793 2.7563 15.4793H5.67609V16.5626H2.7563Z" fill="#3C4044"/>
</g>
</svg>
