<svg width="19" height="18" viewBox="0 0 19 18" fill="none" xmlns="http://www.w3.org/2000/svg">
<mask id="mask0_556_3283" style="mask-type:alpha" maskUnits="userSpaceOnUse" x="0" y="0" width="19" height="18">
<rect x="0.746155" y="0.287842" width="17.4243" height="17.4243" fill="#D9D9D9"/>
</mask>
<g mask="url(#mask0_556_3283)">
<path d="M7.9644 2.28433C7.81012 2.28433 7.68083 2.23212 7.57652 2.1277C7.4721 2.02327 7.41989 1.89392 7.41989 1.73964C7.41989 1.58524 7.4721 1.45595 7.57652 1.35177C7.68083 1.24746 7.81012 1.19531 7.9644 1.19531H10.9523C11.1066 1.19531 11.2359 1.24753 11.3402 1.35195C11.4446 1.45638 11.4968 1.58573 11.4968 1.74C11.4968 1.8944 11.4446 2.02369 11.3402 2.12788C11.2359 2.23218 11.1066 2.28433 10.9523 2.28433H7.9644ZM9.45854 10.3124C9.61293 10.3124 9.74222 10.2602 9.84641 10.1558C9.95071 10.0515 10.0029 9.92219 10.0029 9.76791V6.78C10.0029 6.62572 9.95065 6.49643 9.84623 6.39212C9.7418 6.2877 9.61245 6.23549 9.45817 6.23549C9.30377 6.23549 9.17448 6.2877 9.0703 6.39212C8.96599 6.49643 8.91384 6.62572 8.91384 6.78V9.76791C8.91384 9.92219 8.96605 10.0515 9.07048 10.1558C9.17491 10.2602 9.30426 10.3124 9.45854 10.3124ZM9.45835 15.8971C8.6117 15.8971 7.81363 15.7351 7.06414 15.4112C6.31465 15.0873 5.65979 14.6452 5.09954 14.0848C4.53918 13.5245 4.09704 12.8697 3.77312 12.1202C3.44919 11.3707 3.28723 10.5726 3.28723 9.72598C3.28723 8.87933 3.44919 8.08126 3.77312 7.33177C4.09704 6.58228 4.53918 5.92741 5.09954 5.36717C5.65979 4.80681 6.31465 4.36467 7.06414 4.04074C7.81363 3.71682 8.6117 3.55486 9.45835 3.55486C10.1853 3.55486 10.8855 3.67822 11.5589 3.92495C12.2323 4.17155 12.8576 4.52475 13.4347 4.98456L13.9569 4.46238C14.0574 4.36182 14.1837 4.3104 14.3359 4.3081C14.4881 4.3058 14.6168 4.35723 14.722 4.46238C14.8271 4.56753 14.8797 4.69506 14.8797 4.84499C14.8797 4.99479 14.8271 5.12226 14.722 5.22742L14.1998 5.7496C14.6596 6.32678 15.0128 6.95206 15.2594 7.62544C15.5061 8.29882 15.6295 8.999 15.6295 9.72598C15.6295 10.5726 15.4675 11.3707 15.1436 12.1202C14.8197 12.8697 14.3775 13.5245 13.8172 14.0848C13.2569 14.6452 12.6021 15.0873 11.8526 15.4112C11.1031 15.7351 10.305 15.8971 9.45835 15.8971ZM9.45835 14.8081C10.862 14.8081 12.0599 14.312 13.0521 13.3198C14.0443 12.3275 14.5405 11.1296 14.5405 9.72598C14.5405 8.32235 14.0443 7.12443 13.0521 6.13221C12.0599 5.13999 10.862 4.64388 9.45835 4.64388C8.05473 4.64388 6.8568 5.13999 5.86458 6.13221C4.87236 7.12443 4.37625 8.32235 4.37625 9.72598C4.37625 11.1296 4.87236 12.3275 5.86458 13.3198C6.8568 14.312 8.05473 14.8081 9.45835 14.8081Z" fill="white"/>
</g>
</svg>
