<svg width="25" height="24" viewBox="0 0 25 24" fill="none" xmlns="http://www.w3.org/2000/svg">
<mask id="mask0_546_20732" style="mask-type:alpha" maskUnits="userSpaceOnUse" x="0" y="0" width="25" height="24">
<rect x="0.0668945" width="24" height="24" fill="#D9D9D9"/>
</mask>
<g mask="url(#mask0_546_20732)">
<path d="M13.7226 12.1865L16.5956 10.248C16.8636 10.0673 16.9976 9.818 16.9976 9.5C16.9976 9.182 16.8636 8.93267 16.5956 8.752L13.7226 6.8135C13.4212 6.59933 13.1116 6.58267 12.7938 6.7635C12.4758 6.94433 12.3168 7.2155 12.3168 7.577V11.423C12.3168 11.7845 12.4758 12.0557 12.7938 12.2365C13.1116 12.4173 13.4212 12.4007 13.7226 12.1865ZM9.14382 16.7308C8.63865 16.7308 8.21107 16.5557 7.86107 16.2057C7.51107 15.8557 7.33607 15.4282 7.33607 14.923V4.30775C7.33607 3.80258 7.51107 3.375 7.86107 3.025C8.21107 2.675 8.63865 2.5 9.14382 2.5H19.7591C20.2642 2.5 20.6918 2.675 21.0418 3.025C21.3918 3.375 21.5668 3.80258 21.5668 4.30775V14.923C21.5668 15.4282 21.3918 15.8557 21.0418 16.2057C20.6918 16.5557 20.2642 16.7308 19.7591 16.7308H9.14382ZM9.14382 15.2308H19.7591C19.8489 15.2308 19.9226 15.2019 19.9803 15.1442C20.038 15.0866 20.0668 15.0128 20.0668 14.923V4.30775C20.0668 4.21792 20.038 4.14417 19.9803 4.0865C19.9226 4.02883 19.8489 4 19.7591 4H9.14382C9.05398 4 8.98023 4.02883 8.92257 4.0865C8.8649 4.14417 8.83607 4.21792 8.83607 4.30775V14.923C8.83607 15.0128 8.8649 15.0866 8.92257 15.1442C8.98023 15.2019 9.05398 15.2308 9.14382 15.2308ZM6.00732 21.346C5.50848 21.4063 5.06073 21.2858 4.66407 20.9845C4.26723 20.6833 4.03865 20.2833 3.97832 19.7845L2.70157 9.4655C2.64123 8.96667 2.76848 8.51825 3.08332 8.12025C3.39798 7.72208 3.80465 7.491 4.30332 7.427L4.54582 7.41725C4.75848 7.38658 4.94848 7.444 5.11582 7.5895C5.28315 7.735 5.36682 7.9225 5.36682 8.152C5.36682 8.33783 5.30173 8.50158 5.17157 8.64325C5.04157 8.78492 4.88357 8.87117 4.69757 8.902L4.48982 8.9115C4.40015 8.918 4.32965 8.95483 4.27832 9.022C4.22698 9.08933 4.20773 9.16792 4.22057 9.25775L5.49382 19.5923C5.50665 19.6821 5.54507 19.7526 5.60907 19.8038C5.67323 19.8551 5.75015 19.8743 5.83982 19.8615L17.6516 18.402C17.8642 18.375 18.0517 18.424 18.2138 18.549C18.3762 18.674 18.4707 18.8429 18.4976 19.0557C18.5246 19.2686 18.4756 19.4519 18.3506 19.6057C18.2256 19.7596 18.0567 19.85 17.8438 19.877L6.00732 21.346Z" fill="#3C4044"/>
</g>
</svg>
